<svg xmlns="http://www.w3.org/2000/svg" width="96.621" height="57.289" viewBox="0 0 96.621 57.289">
  <path id="aircraft" d="M92.18,132.952H90.57v-4.636a1.415,1.415,0,0,0-2.831,0v4.636H76.22l-2.9-3.626a10.44,10.44,0,0,0-8.193-3.937H30.808L13.985,105.761a4.436,4.436,0,0,0-3.372-1.551h-9.2a1.415,1.415,0,0,0-1.3,1.973l8.231,19.205H4.039a4.039,4.039,0,0,0-1.231,7.885l30.565,9.781a4.439,4.439,0,0,0,2.835,7.856H46.9v1.94a4.441,4.441,0,1,0,2.831,0v-1.94H60.412a4.448,4.448,0,0,0,4.208-3.025H77.15v4.966a4.441,4.441,0,1,0,2.831,0v-4.987a10.412,10.412,0,0,0,6.782-3.052l.976-.976v2.634a1.415,1.415,0,0,0,2.831,0v-4.636h1.61a4.441,4.441,0,0,0,0-8.882ZM48.31,158.669a1.61,1.61,0,1,1,1.61-1.61A1.612,1.612,0,0,1,48.31,158.669Zm22.8-27.574,3.016,3.77v1.016a1.612,1.612,0,0,1-1.61,1.61H70.363l-4.622-9.244a7.617,7.617,0,0,1,5.367,2.848Zm-30.46-2.875H51.433v8.421q-.775-.258-1.53-.592l-8.3-3.688a1.611,1.611,0,0,1-.956-1.471Zm13.615,0h8.3L67.2,137.49H56.7a16.817,16.817,0,0,1-2.437-.178v-9.093ZM10.613,107.041a1.608,1.608,0,0,1,1.222.562l2.278,2.658H4.942l-1.38-3.22Zm67.952,51.628a1.61,1.61,0,1,1,1.61-1.61A1.612,1.612,0,0,1,78.565,158.669Zm6.2-15.858a7.61,7.61,0,0,1-5.417,2.244H64.621a4.448,4.448,0,0,0-4.208-3.025,1.415,1.415,0,1,0,0,2.831,1.612,1.612,0,0,1,1.61,1.607v.005a1.612,1.612,0,0,1-1.61,1.607h-24.2a1.61,1.61,0,0,1,0-3.22H54.361a1.415,1.415,0,1,0,0-2.831H39.455L3.67,130.577a1.208,1.208,0,0,1,.368-2.358h9.478a1.415,1.415,0,0,0,0-2.831H11.425l-5.27-12.3H16.54l10.54,12.3H19.568a1.415,1.415,0,1,0,0,2.831H37.819v2.67a4.445,4.445,0,0,0,2.637,4.058l8.3,3.688a19.447,19.447,0,0,0,7.947,1.687H72.514a4.446,4.446,0,0,0,4.441-4.441v-.1H87.739v4.049ZM92.18,139H90.57v-3.22h1.61a1.61,1.61,0,0,1,0,3.22Z" transform="translate(0 -104.21)" fill="#fff"/>
</svg>
