<svg id="airdrop" xmlns="http://www.w3.org/2000/svg" width="59.361" height="69.708" viewBox="0 0 59.361 69.708">
  <path id="Path_15935" data-name="Path 15935" d="M106.521,469.042h5.037a1.021,1.021,0,1,0,0-2.042h-5.037a1.021,1.021,0,1,0,0,2.042Zm0,0" transform="translate(-91.136 -403.419)" fill="#fff"/>
  <path id="Path_15936" data-name="Path 15936" d="M106.521,439.042h2.587a1.021,1.021,0,1,0,0-2.042h-2.587a1.021,1.021,0,1,0,0,2.042Zm0,0" transform="translate(-91.136 -377.504)" fill="#fff"/>
  <path id="Path_15937" data-name="Path 15937" d="M278.514,443.127a2.386,2.386,0,0,0,2.383-2.383v-1.362A2.385,2.385,0,0,0,278.514,437h-3.131A2.385,2.385,0,0,0,273,439.383v1.362a2.386,2.386,0,0,0,2.383,2.383Zm-3.472-2.383v-1.362a.341.341,0,0,1,.34-.34h3.131a.341.341,0,0,1,.34.34v1.362a.341.341,0,0,1-.34.34h-3.131A.341.341,0,0,1,275.042,440.744Zm0,0" transform="translate(-235.832 -377.504)" fill="#fff"/>
  <path id="Path_15938" data-name="Path 15938" d="M31.11,0H28.251A28.283,28.283,0,0,0,0,28.251v4.084a1.016,1.016,0,0,0,.3.725l0,0,10.66,10.5a3.724,3.724,0,0,0-.754,2.25v20.15a3.748,3.748,0,0,0,3.744,3.744H20.49a1.021,1.021,0,1,0,0-2.042H13.955a1.7,1.7,0,0,1-1.7-1.7V45.814a1.7,1.7,0,0,1,1.7-1.7h8.373v7.556a3.067,3.067,0,0,0,3.063,3.063h8.577a3.067,3.067,0,0,0,3.063-3.063V42.41a2.385,2.385,0,0,0-2.383-2.383H24.711a2.385,2.385,0,0,0-2.355,2.042h-8.4a3.727,3.727,0,0,0-1.342.25L2.057,31.922c.192-2.8,2.51-4.726,5.772-4.726,3.393,0,5.766,2.082,5.786,5.068v.072a1.021,1.021,0,0,0,2.042,0v-.082c.01-4.756,4.977-5.126,6.5-5.126a7.8,7.8,0,0,1,4.706,1.318,4.514,4.514,0,0,1,1.795,3.822,1.021,1.021,0,0,0,2.042,0v-.034c.023-4.736,4.979-5.106,6.5-5.106s6.5.371,6.5,5.14v.068a1.021,1.021,0,1,0,2.042,0V32.3c0-3.006,2.379-5.106,5.786-5.106,3.262,0,5.579,1.925,5.772,4.726L46.749,42.32a3.719,3.719,0,0,0-1.343-.25H40.777a1.021,1.021,0,0,0,0,2.042h4.629a1.7,1.7,0,0,1,1.7,1.7v20.15a1.7,1.7,0,0,1-1.7,1.7H25.256a1.021,1.021,0,1,0,0,2.042h20.15a3.749,3.749,0,0,0,3.744-3.744V45.814a3.724,3.724,0,0,0-.754-2.251l10.66-10.5,0,0a1.015,1.015,0,0,0,.3-.725V28.251A28.283,28.283,0,0,0,31.11,0ZM24.37,42.41a.341.341,0,0,1,.34-.34H34.65a.341.341,0,0,1,.34.34v9.258a1.022,1.022,0,0,1-1.021,1.021H25.392a1.022,1.022,0,0,1-1.021-1.021ZM7.828,25.153a8.159,8.159,0,0,0-5.768,2.168A26.244,26.244,0,0,1,25.989,2.141a29.81,29.81,0,0,0-8.075,9.7A35.607,35.607,0,0,0,13.63,27.351,8.151,8.151,0,0,0,7.828,25.153Zm14.33-.068a9.294,9.294,0,0,0-6.484,2.2c.332-9.895,5.713-19.975,12.985-24.5V27.3a9.283,9.283,0,0,0-6.5-2.212Zm15.044,0a9.8,9.8,0,0,0-5.931,1.727,6.846,6.846,0,0,0-.57.479V2.778c7.272,4.53,12.653,14.61,12.986,24.5a9.3,9.3,0,0,0-6.485-2.2Zm14.33.068a8.15,8.15,0,0,0-5.8,2.2,35.608,35.608,0,0,0-4.284-15.513,29.8,29.8,0,0,0-8.075-9.7A26.245,26.245,0,0,1,57.3,27.321,8.16,8.16,0,0,0,51.532,25.153Zm0,0" transform="translate(0)" fill="#fff"/>
</svg>
