<svg id="airport" xmlns="http://www.w3.org/2000/svg" width="81.384" height="69.525" viewBox="0 0 81.384 69.525">
  <path id="Path_15901" data-name="Path 15901" d="M81.437,41.577l-6.374,9.779a1.977,1.977,0,0,0,1.656,3.057h0l4.559-.008a2.273,2.273,0,0,0,1.354-.454l9.349-7.037L105.2,49.177l.035.005a4.764,4.764,0,0,0,.675.048l5.122-.008-14.289,24.2a1.924,1.924,0,0,0,1.656,2.9h0l8.1-.005a2.844,2.844,0,0,0,1.988-.807l7.194-6.981a1.413,1.413,0,0,0-1.968-2.028l-7.194,6.981a.031.031,0,0,1-.022.009l-6.521,0,14.337-24.276,17.236-.027L118.507,61.848a1.413,1.413,0,1,0,1.968,2.028l15.139-14.691,7.168-.011a9.376,9.376,0,0,0,3.539-.7l6.96-2.838a4.51,4.51,0,0,0-.015-8.359L146.3,34.465a9.371,9.371,0,0,0-3.525-.685h-.017l-7.285.012L108.488,7.608A2.845,2.845,0,0,0,106.5,6.8L98.4,6.8h0a1.924,1.924,0,0,0-1.657,2.9L110.991,33.83l-5.111.008a4.677,4.677,0,0,0-.677.051l-.034.005-13.2,2.31L82.592,29.2a2.274,2.274,0,0,0-1.353-.449h0l-4.559.008a1.977,1.977,0,0,0-1.648,3.062Zm-.385-10,9.32,6.964a2.551,2.551,0,0,0,1.961.468l13.3-2.327a1.816,1.816,0,0,1,.248-.018l18.879-.029a1.413,1.413,0,0,0,0-2.826h0l-10.489.016L99.977,9.623l6.52,0a.032.032,0,0,1,.022.009L131.5,33.876a1.412,1.412,0,0,0,.459,2.749h0l10.8-.018h.012a6.558,6.558,0,0,1,2.467.479l6.969,2.814a1.684,1.684,0,0,1,.005,3.121l-6.96,2.838a6.563,6.563,0,0,1-2.477.488L105.9,46.4h0a1.812,1.812,0,0,1-.244-.017L92.342,44.107a2.55,2.55,0,0,0-1.959.475l-9.3,7-2.8,0,5.618-8.618a2.543,2.543,0,0,0,0-2.785l-5.647-8.6Z" transform="translate(-74.704 -6.796)" fill="#fff"/>
  <ellipse id="Ellipse_1" data-name="Ellipse 1" cx="1.817" cy="1.817" rx="1.817" ry="1.817" transform="translate(34.731 33.014) rotate(-5.853)" fill="#fff"/>
  <ellipse id="Ellipse_2" data-name="Ellipse 2" cx="1.817" cy="1.817" rx="1.817" ry="1.817" transform="translate(41.17 35.809) rotate(-72.543)" fill="#fff"/>
  <ellipse id="Ellipse_3" data-name="Ellipse 3" cx="1.817" cy="1.817" rx="1.817" ry="1.817" transform="translate(47.466 34.618) rotate(-45)" fill="#fff"/>
  <path id="Path_15902" data-name="Path 15902" d="M367.728,184.2a1.817,1.817,0,1,0-1.818-1.816A1.817,1.817,0,0,0,367.728,184.2Z" transform="translate(-310.956 -147.775)" fill="#fff"/>
</svg>
