<svg xmlns="http://www.w3.org/2000/svg" width="15.415" height="29.531" viewBox="0 0 15.415 29.531">
  <g id="download_1_" data-name="download (1)" transform="translate(0 29.531) rotate(-90)">
    <path id="Path_16536" data-name="Path 16536" d="M28.425,15.218,14.756,1.549,1.088,15.218a.642.642,0,0,1-.908-.908L14.3.188a.642.642,0,0,1,.908,0L29.334,14.311a.642.642,0,0,1-.892.923l-.016-.016Z" transform="translate(0.001 0.001)" fill="#54545b"/>
    <path id="Path_16537" data-name="Path 16537" d="M14.758,0A.642.642,0,0,0,14.3.187L.18,14.31a.642.642,0,0,0,.908.908L14.758,1.55,28.426,15.219a.642.642,0,0,0,.924-.892l-.016-.016L15.211.189A.642.642,0,0,0,14.758,0Z" transform="translate(0 0)" fill="#54545b"/>
  </g>
</svg>
