<svg xmlns="http://www.w3.org/2000/svg" width="15.416" height="29.531" viewBox="0 0 15.416 29.531">
  <g id="download_1_" data-name="download (1)" transform="translate(-117.272 29.531) rotate(-90)">
    <path id="Path_16536" data-name="Path 16536" d="M28.446,117.468l-13.669,13.67L1.109,117.468a.642.642,0,0,0-.908.908L14.324,132.5a.642.642,0,0,0,.908,0l14.123-14.123a.642.642,0,0,0-.892-.924l-.016.016Z" transform="translate(-0.02)" fill="#54545b"/>
    <path id="Path_16537" data-name="Path 16537" d="M14.757,132.689a.642.642,0,0,1-.455-.187L.18,118.378a.642.642,0,0,1,.908-.908l13.67,13.669,13.669-13.67a.642.642,0,0,1,.924.892l-.016.016L15.211,132.5A.642.642,0,0,1,14.757,132.689Z" transform="translate(0 -0.001)" fill="#54545b"/>
  </g>
</svg>
