<svg xmlns="http://www.w3.org/2000/svg" width="261.541" height="44.893" viewBox="0 0 261.541 44.893">
  <g id="Group_2515" data-name="Group 2515" transform="translate(0 -3.333)">
    <text id="SKY_services" data-name="SKY services" transform="translate(58.541 39.333)" fill="#363640" font-size="33" font-family="SegoeUI, Segoe UI"><tspan x="0" y="0">SKY SERVICES</tspan></text>
    <path id="plane_3_" data-name="plane (3)" d="M39.686,33.471,32.491,14.324a17.674,17.674,0,0,0,3.73-5.575c.836-2.162.723-3.926-.318-4.967s-2.8-1.153-4.967-.318a17.675,17.675,0,0,0-5.574,3.73L6.215,0,0,3.257,18.686,14.709c-1.232,1.489-2.5,3.066-3.7,4.618Q14,20.6,13.163,21.741l-6.9-.236-4,2.984,7.271,2.8a9.875,9.875,0,0,0-.5,1.12c-.13.357-.527,1.444.137,2.108a1.353,1.353,0,0,0,.992.374,3.338,3.338,0,0,0,1.115-.237,9.867,9.867,0,0,0,1.12-.5l2.8,7.271,2.984-4-.236-6.9q1.137-.836,2.414-1.823c1.552-1.2,3.129-2.468,4.618-3.7L36.429,39.686Z" transform="translate(0 8.54)" fill="#363640"/>
  </g>
</svg>
