<svg id="chopper" xmlns="http://www.w3.org/2000/svg" width="90.582" height="48.31" viewBox="0 0 90.582 48.31">
  <g id="Group_2439" data-name="Group 2439" transform="translate(0 9.058)">
    <g id="Group_2438" data-name="Group 2438">
      <path id="Path_15946" data-name="Path 15946" d="M9.058,160a9.058,9.058,0,1,0,9.058,9.058A9.068,9.068,0,0,0,9.058,160Zm0,15.1a6.039,6.039,0,1,1,6.039-6.039A6.045,6.045,0,0,1,9.058,175.1Z" transform="translate(0 -160)" fill="#fff"/>
    </g>
  </g>
  <g id="Group_2441" data-name="Group 2441" transform="translate(10.727 0)">
    <g id="Group_2440" data-name="Group 2440">
      <path id="Path_15947" data-name="Path 15947" d="M129.15,154.272a7.548,7.548,0,0,0,0-15.1h-.885l-5.6-5.6a1.51,1.51,0,0,0-1.067-.442h-8.433l-4.087-4.087a1.51,1.51,0,0,0-1.067-.442h-6.039v-3.019h31.7v-3.019h-31.7v-3.019h3.019V113.51a1.509,1.509,0,0,0-1.51-1.51H97.446a1.509,1.509,0,0,0-1.51,1.51v6.039h3.019v3.019h-31.7v3.019h31.7v3.019H91.407a1.509,1.509,0,0,0-1.51,1.51v3.9l-6.664,6.664H66.367l-2.577-2.577-2.135,2.135,3.019,3.019a1.51,1.51,0,0,0,1.067.442H83.859a1.51,1.51,0,0,0,1.067-.442l7.549-7.549a1.509,1.509,0,0,0,.442-1.067v-3.019h14.472l1.51,1.51H95.936v3.019h13.587v4.529a1.509,1.509,0,0,0,1.51,1.51H129.15a4.529,4.529,0,0,1,0,9.058H91.52l-29.307-4.4-2.669-5.337-2.7,1.35,3.019,6.039a1.514,1.514,0,0,0,1.126.818l30.194,4.529a1.621,1.621,0,0,0,.224.016h7.549v3.019H85.368v3.019h45.291a1.509,1.509,0,0,0,1.51-1.51v-3.019H129.15v1.51H121.6v-3.019ZM98.956,115.019h3.019v1.51H98.956Zm13.587,24.155v-3.019h8.433L124,139.175Zm6.039,18.116H101.975v-3.019h16.607Z" transform="translate(-56.843 -112)" fill="#fff"/>
    </g>
  </g>
  <g id="Group_2443" data-name="Group 2443" transform="translate(45.291 27.175)">
    <g id="Group_2442" data-name="Group 2442">
      <path id="Path_15948" data-name="Path 15948" d="M246.039,259.019V256h-3.019v3.019H240v3.019h3.019v3.019h3.019v-3.019h3.019v-3.019Z" transform="translate(-240 -256)" fill="#fff"/>
    </g>
  </g>
  <g id="Group_2445" data-name="Group 2445" transform="translate(7.936 16.515)">
    <g id="Group_2444" data-name="Group 2444" transform="translate(0 0)">
      <rect id="Rectangle_6" data-name="Rectangle 6" width="2.976" height="2.976" fill="#fff"/>
    </g>
  </g>
</svg>
