<svg id="clock_2_" data-name="clock (2)" xmlns="http://www.w3.org/2000/svg" width="25.16" height="25.16" viewBox="0 0 25.16 25.16">
  <path id="Path_16506" data-name="Path 16506" d="M12.58,25.16A12.58,12.58,0,1,1,25.16,12.58,12.594,12.594,0,0,1,12.58,25.16Zm0-23.588A11.008,11.008,0,1,0,23.588,12.58,11.02,11.02,0,0,0,12.58,1.573Zm0,0" fill="#fff"/>
  <path id="Path_16507" data-name="Path 16507" d="M246.29,115.747a.78.78,0,0,1-.556-.231l-5.5-5.5a.786.786,0,0,1-.231-.556v-7.339a.786.786,0,1,1,1.573,0v7.012l5.273,5.273a.787.787,0,0,1-.556,1.343Zm0,0" transform="translate(-228.206 -96.352)" fill="#fff"/>
</svg>
