<svg id="date" xmlns="http://www.w3.org/2000/svg" width="24.717" height="24.717" viewBox="0 0 24.717 24.717">
  <g id="Group_2470" data-name="Group 2470">
    <g id="Group_2469" data-name="Group 2469">
      <path id="Path_16505" data-name="Path 16505" d="M22.069,2.648H19.42V.883a.883.883,0,1,0-1.766,0V2.648H7.062V.883A.883.883,0,1,0,5.3.883V2.648H2.648A2.648,2.648,0,0,0,0,5.3V22.069a2.648,2.648,0,0,0,2.648,2.648h19.42a2.648,2.648,0,0,0,2.648-2.648V5.3A2.648,2.648,0,0,0,22.069,2.648Zm.883,19.42a.883.883,0,0,1-.883.883H2.648a.883.883,0,0,1-.883-.883V10.593H22.951Zm0-13.241H1.765V5.3a.883.883,0,0,1,.883-.883H5.3V6.179a.883.883,0,0,0,1.766,0V4.414H17.655V6.179a.883.883,0,1,0,1.766,0V4.414h2.648a.883.883,0,0,1,.883.883V8.827Z" fill="#fff"/>
    </g>
  </g>
</svg>
