<svg id="mail_1_" data-name="mail (1)" xmlns="http://www.w3.org/2000/svg" width="27.243" height="20.751" viewBox="0 0 27.243 20.751">
  <g id="Group_2513" data-name="Group 2513" transform="translate(0 0)">
    <path id="Path_16547" data-name="Path 16547" d="M24.848,61H2.394A2.4,2.4,0,0,0,0,63.394V79.357a2.4,2.4,0,0,0,2.394,2.394H24.848a2.4,2.4,0,0,0,2.394-2.394V63.394A2.4,2.4,0,0,0,24.848,61Zm-.331,1.6L13.672,73.442,2.733,62.6ZM1.6,79.026V63.717l7.688,7.621Zm1.129,1.129,7.692-7.692,2.7,2.672a.8.8,0,0,0,1.126,0L16.867,72.5l7.651,7.651Zm22.922-1.129L18,71.375l7.651-7.651Z" transform="translate(0 -61)" fill="#fff"/>
  </g>
</svg>
