<svg xmlns="http://www.w3.org/2000/svg" width="810" height="515.464" viewBox="0 0 810 515.464">
  <g id="Group_2530" data-name="Group 2530" transform="translate(-825 -793.333)" opacity="0.3">
    <g id="Group_2514" data-name="Group 2514" transform="translate(1007.82 790)">
      <text id="SKY_services" data-name="SKY services" transform="translate(58.18 39.333)" fill="#363640" font-size="33" font-family="SegoeUI, Segoe UI"><tspan x="0" y="0">SKY SERVICES</tspan></text>
      <path id="plane_3_" data-name="plane (3)" d="M39.686,33.471,32.491,14.324a17.674,17.674,0,0,0,3.73-5.575c.836-2.162.723-3.926-.318-4.967s-2.8-1.153-4.967-.318a17.675,17.675,0,0,0-5.574,3.73L6.215,0,0,3.257,18.686,14.709c-1.232,1.489-2.5,3.066-3.7,4.618Q14,20.6,13.163,21.741l-6.9-.236-4,2.984,7.271,2.8a9.875,9.875,0,0,0-.5,1.12c-.13.357-.527,1.444.137,2.108a1.353,1.353,0,0,0,.992.374,3.338,3.338,0,0,0,1.115-.237,9.867,9.867,0,0,0,1.12-.5l2.8,7.271,2.984-4-.236-6.9q1.137-.836,2.414-1.823c1.552-1.2,3.129-2.468,4.618-3.7L36.429,39.686Z" transform="translate(0 8.54)" fill="#363640"/>
    </g>
    <g id="Group_2515" data-name="Group 2515" transform="translate(1373.459 790)">
      <text id="SKY_services-2" data-name="SKY services" transform="translate(58.541 39.333)" fill="#363640" font-size="33" font-family="SegoeUI, Segoe UI"><tspan x="0" y="0">SKY SERVICES</tspan></text>
      <path id="plane_3_2" data-name="plane (3)" d="M39.686,33.471,32.491,14.324a17.674,17.674,0,0,0,3.73-5.575c.836-2.162.723-3.926-.318-4.967s-2.8-1.153-4.967-.318a17.675,17.675,0,0,0-5.574,3.73L6.215,0,0,3.257,18.686,14.709c-1.232,1.489-2.5,3.066-3.7,4.618Q14,20.6,13.163,21.741l-6.9-.236-4,2.984,7.271,2.8a9.875,9.875,0,0,0-.5,1.12c-.13.357-.527,1.444.137,2.108a1.353,1.353,0,0,0,.992.374,3.338,3.338,0,0,0,1.115-.237,9.867,9.867,0,0,0,1.12-.5l2.8,7.271,2.984-4-.236-6.9q1.137-.836,2.414-1.823c1.552-1.2,3.129-2.468,4.618-3.7L36.429,39.686Z" transform="translate(0 8.54)" fill="#363640"/>
    </g>
    <g id="Group_2516" data-name="Group 2516" transform="translate(825 859.234)">
      <text id="SKY_services-3" data-name="SKY services" transform="translate(58 39.1)" fill="#363640" font-size="33" font-family="SegoeUI, Segoe UI"><tspan x="0" y="0">SKY SERVICES</tspan></text>
      <path id="plane_3_3" data-name="plane (3)" d="M39.686,33.471,32.491,14.324a17.674,17.674,0,0,0,3.73-5.575c.836-2.162.723-3.926-.318-4.967s-2.8-1.153-4.967-.318a17.675,17.675,0,0,0-5.574,3.73L6.215,0,0,3.257,18.686,14.709c-1.232,1.489-2.5,3.066-3.7,4.618Q14,20.6,13.163,21.741l-6.9-.236-4,2.984,7.271,2.8a9.875,9.875,0,0,0-.5,1.12c-.13.357-.527,1.444.137,2.108a1.353,1.353,0,0,0,.992.374,3.338,3.338,0,0,0,1.115-.237,9.867,9.867,0,0,0,1.12-.5l2.8,7.271,2.984-4-.236-6.9q1.137-.836,2.414-1.823c1.552-1.2,3.129-2.468,4.618-3.7L36.429,39.686Z" transform="translate(0 8.54)" fill="#363640"/>
    </g>
    <g id="Group_2517" data-name="Group 2517" transform="translate(1190.639 859.234)">
      <text id="SKY_services-4" data-name="SKY services" transform="translate(58.361 39.1)" fill="#363640" font-size="33" font-family="SegoeUI, Segoe UI"><tspan x="0" y="0">SKY SERVICES</tspan></text>
      <path id="plane_3_4" data-name="plane (3)" d="M39.686,33.471,32.491,14.324a17.674,17.674,0,0,0,3.73-5.575c.836-2.162.723-3.926-.318-4.967s-2.8-1.153-4.967-.318a17.675,17.675,0,0,0-5.574,3.73L6.215,0,0,3.257,18.686,14.709c-1.232,1.489-2.5,3.066-3.7,4.618Q14,20.6,13.163,21.741l-6.9-.236-4,2.984,7.271,2.8a9.875,9.875,0,0,0-.5,1.12c-.13.357-.527,1.444.137,2.108a1.353,1.353,0,0,0,.992.374,3.338,3.338,0,0,0,1.115-.237,9.867,9.867,0,0,0,1.12-.5l2.8,7.271,2.984-4-.236-6.9q1.137-.836,2.414-1.823c1.552-1.2,3.129-2.468,4.618-3.7L36.429,39.686Z" transform="translate(0 8.54)" fill="#363640"/>
    </g>
    <g id="Group_2518" data-name="Group 2518" transform="translate(1007.82 925.222)">
      <text id="SKY_services-5" data-name="SKY services" transform="translate(58.18 39.111)" fill="#363640" font-size="33" font-family="SegoeUI, Segoe UI"><tspan x="0" y="0">SKY SERVICES</tspan></text>
      <path id="plane_3_5" data-name="plane (3)" d="M39.686,33.471,32.491,14.324a17.674,17.674,0,0,0,3.73-5.575c.836-2.162.723-3.926-.318-4.967s-2.8-1.153-4.967-.318a17.675,17.675,0,0,0-5.574,3.73L6.215,0,0,3.257,18.686,14.709c-1.232,1.489-2.5,3.066-3.7,4.618Q14,20.6,13.163,21.741l-6.9-.236-4,2.984,7.271,2.8a9.875,9.875,0,0,0-.5,1.12c-.13.357-.527,1.444.137,2.108a1.353,1.353,0,0,0,.992.374,3.338,3.338,0,0,0,1.115-.237,9.867,9.867,0,0,0,1.12-.5l2.8,7.271,2.984-4-.236-6.9q1.137-.836,2.414-1.823c1.552-1.2,3.129-2.468,4.618-3.7L36.429,39.686Z" transform="translate(0 8.54)" fill="#363640"/>
    </g>
    <g id="Group_2519" data-name="Group 2519" transform="translate(1373.459 925.222)">
      <text id="SKY_services-6" data-name="SKY services" transform="translate(58.541 39.111)" fill="#363640" font-size="33" font-family="SegoeUI, Segoe UI"><tspan x="0" y="0">SKY SERVICES</tspan></text>
      <path id="plane_3_6" data-name="plane (3)" d="M39.686,33.471,32.491,14.324a17.674,17.674,0,0,0,3.73-5.575c.836-2.162.723-3.926-.318-4.967s-2.8-1.153-4.967-.318a17.675,17.675,0,0,0-5.574,3.73L6.215,0,0,3.257,18.686,14.709c-1.232,1.489-2.5,3.066-3.7,4.618Q14,20.6,13.163,21.741l-6.9-.236-4,2.984,7.271,2.8a9.875,9.875,0,0,0-.5,1.12c-.13.357-.527,1.444.137,2.108a1.353,1.353,0,0,0,.992.374,3.338,3.338,0,0,0,1.115-.237,9.867,9.867,0,0,0,1.12-.5l2.8,7.271,2.984-4-.236-6.9q1.137-.836,2.414-1.823c1.552-1.2,3.129-2.468,4.618-3.7L36.429,39.686Z" transform="translate(0 8.54)" fill="#363640"/>
    </g>
    <g id="Group_2520" data-name="Group 2520" transform="translate(825 994.455)">
      <text id="SKY_services-7" data-name="SKY services" transform="translate(58 38.878)" fill="#363640" font-size="33" font-family="SegoeUI, Segoe UI"><tspan x="0" y="0">SKY SERVICES</tspan></text>
      <path id="plane_3_7" data-name="plane (3)" d="M39.686,33.471,32.491,14.324a17.674,17.674,0,0,0,3.73-5.575c.836-2.162.723-3.926-.318-4.967s-2.8-1.153-4.967-.318a17.675,17.675,0,0,0-5.574,3.73L6.215,0,0,3.257,18.686,14.709c-1.232,1.489-2.5,3.066-3.7,4.618Q14,20.6,13.163,21.741l-6.9-.236-4,2.984,7.271,2.8a9.875,9.875,0,0,0-.5,1.12c-.13.357-.527,1.444.137,2.108a1.353,1.353,0,0,0,.992.374,3.338,3.338,0,0,0,1.115-.237,9.867,9.867,0,0,0,1.12-.5l2.8,7.271,2.984-4-.236-6.9q1.137-.836,2.414-1.823c1.552-1.2,3.129-2.468,4.618-3.7L36.429,39.686Z" transform="translate(0 8.54)" fill="#363640"/>
    </g>
    <g id="Group_2521" data-name="Group 2521" transform="translate(1190.639 994.455)">
      <text id="SKY_services-8" data-name="SKY services" transform="translate(58.361 38.878)" fill="#363640" font-size="33" font-family="SegoeUI, Segoe UI"><tspan x="0" y="0">SKY SERVICES</tspan></text>
      <path id="plane_3_8" data-name="plane (3)" d="M39.686,33.471,32.491,14.324a17.674,17.674,0,0,0,3.73-5.575c.836-2.162.723-3.926-.318-4.967s-2.8-1.153-4.967-.318a17.675,17.675,0,0,0-5.574,3.73L6.215,0,0,3.257,18.686,14.709c-1.232,1.489-2.5,3.066-3.7,4.618Q14,20.6,13.163,21.741l-6.9-.236-4,2.984,7.271,2.8a9.875,9.875,0,0,0-.5,1.12c-.13.357-.527,1.444.137,2.108a1.353,1.353,0,0,0,.992.374,3.338,3.338,0,0,0,1.115-.237,9.867,9.867,0,0,0,1.12-.5l2.8,7.271,2.984-4-.236-6.9q1.137-.836,2.414-1.823c1.552-1.2,3.129-2.468,4.618-3.7L36.429,39.686Z" transform="translate(0 8.54)" fill="#363640"/>
    </g>
    <g id="Group_2522" data-name="Group 2522" transform="translate(1007.82 1060.443)">
      <text id="SKY_services-9" data-name="SKY services" transform="translate(58.18 38.89)" fill="#363640" font-size="33" font-family="SegoeUI, Segoe UI"><tspan x="0" y="0">SKY SERVICES</tspan></text>
      <path id="plane_3_9" data-name="plane (3)" d="M39.686,33.471,32.491,14.324a17.674,17.674,0,0,0,3.73-5.575c.836-2.162.723-3.926-.318-4.967s-2.8-1.153-4.967-.318a17.675,17.675,0,0,0-5.574,3.73L6.215,0,0,3.257,18.686,14.709c-1.232,1.489-2.5,3.066-3.7,4.618Q14,20.6,13.163,21.741l-6.9-.236-4,2.984,7.271,2.8a9.875,9.875,0,0,0-.5,1.12c-.13.357-.527,1.444.137,2.108a1.353,1.353,0,0,0,.992.374,3.338,3.338,0,0,0,1.115-.237,9.867,9.867,0,0,0,1.12-.5l2.8,7.271,2.984-4-.236-6.9q1.137-.836,2.414-1.823c1.552-1.2,3.129-2.468,4.618-3.7L36.429,39.686Z" transform="translate(0 8.54)" fill="#363640"/>
    </g>
    <g id="Group_2523" data-name="Group 2523" transform="translate(1373.459 1060.443)">
      <text id="SKY_services-10" data-name="SKY services" transform="translate(58.541 38.89)" fill="#363640" font-size="33" font-family="SegoeUI, Segoe UI"><tspan x="0" y="0">SKY SERVICES</tspan></text>
      <path id="plane_3_10" data-name="plane (3)" d="M39.686,33.471,32.491,14.324a17.674,17.674,0,0,0,3.73-5.575c.836-2.162.723-3.926-.318-4.967s-2.8-1.153-4.967-.318a17.675,17.675,0,0,0-5.574,3.73L6.215,0,0,3.257,18.686,14.709c-1.232,1.489-2.5,3.066-3.7,4.618Q14,20.6,13.163,21.741l-6.9-.236-4,2.984,7.271,2.8a9.875,9.875,0,0,0-.5,1.12c-.13.357-.527,1.444.137,2.108a1.353,1.353,0,0,0,.992.374,3.338,3.338,0,0,0,1.115-.237,9.867,9.867,0,0,0,1.12-.5l2.8,7.271,2.984-4-.236-6.9q1.137-.836,2.414-1.823c1.552-1.2,3.129-2.468,4.618-3.7L36.429,39.686Z" transform="translate(0 8.54)" fill="#363640"/>
    </g>
    <g id="Group_2524" data-name="Group 2524" transform="translate(825 1129.677)">
      <text id="SKY_services-11" data-name="SKY services" transform="translate(58 38.656)" fill="#363640" font-size="33" font-family="SegoeUI, Segoe UI"><tspan x="0" y="0">SKY SERVICES</tspan></text>
      <path id="plane_3_11" data-name="plane (3)" d="M39.686,33.471,32.491,14.324a17.674,17.674,0,0,0,3.73-5.575c.836-2.162.723-3.926-.318-4.967s-2.8-1.153-4.967-.318a17.675,17.675,0,0,0-5.574,3.73L6.215,0,0,3.257,18.686,14.709c-1.232,1.489-2.5,3.066-3.7,4.618Q14,20.6,13.163,21.741l-6.9-.236-4,2.984,7.271,2.8a9.875,9.875,0,0,0-.5,1.12c-.13.357-.527,1.444.137,2.108a1.353,1.353,0,0,0,.992.374,3.338,3.338,0,0,0,1.115-.237,9.867,9.867,0,0,0,1.12-.5l2.8,7.271,2.984-4-.236-6.9q1.137-.836,2.414-1.823c1.552-1.2,3.129-2.468,4.618-3.7L36.429,39.686Z" transform="translate(0 8.54)" fill="#363640"/>
    </g>
    <g id="Group_2525" data-name="Group 2525" transform="translate(1190.639 1129.677)">
      <text id="SKY_services-12" data-name="SKY services" transform="translate(58.361 38.656)" fill="#363640" font-size="33" font-family="SegoeUI, Segoe UI"><tspan x="0" y="0">SKY SERVICES</tspan></text>
      <path id="plane_3_12" data-name="plane (3)" d="M39.686,33.471,32.491,14.324a17.674,17.674,0,0,0,3.73-5.575c.836-2.162.723-3.926-.318-4.967s-2.8-1.153-4.967-.318a17.675,17.675,0,0,0-5.574,3.73L6.215,0,0,3.257,18.686,14.709c-1.232,1.489-2.5,3.066-3.7,4.618Q14,20.6,13.163,21.741l-6.9-.236-4,2.984,7.271,2.8a9.875,9.875,0,0,0-.5,1.12c-.13.357-.527,1.444.137,2.108a1.353,1.353,0,0,0,.992.374,3.338,3.338,0,0,0,1.115-.237,9.867,9.867,0,0,0,1.12-.5l2.8,7.271,2.984-4-.236-6.9q1.137-.836,2.414-1.823c1.552-1.2,3.129-2.468,4.618-3.7L36.429,39.686Z" transform="translate(0 8.54)" fill="#363640"/>
    </g>
    <g id="Group_2526" data-name="Group 2526" transform="translate(1007.82 1191.338)">
      <text id="SKY_services-13" data-name="SKY services" transform="translate(58.18 38.995)" fill="#363640" font-size="33" font-family="SegoeUI, Segoe UI"><tspan x="0" y="0">SKY SERVICES</tspan></text>
      <path id="plane_3_13" data-name="plane (3)" d="M39.686,33.471,32.491,14.324a17.674,17.674,0,0,0,3.73-5.575c.836-2.162.723-3.926-.318-4.967s-2.8-1.153-4.967-.318a17.675,17.675,0,0,0-5.574,3.73L6.215,0,0,3.257,18.686,14.709c-1.232,1.489-2.5,3.066-3.7,4.618Q14,20.6,13.163,21.741l-6.9-.236-4,2.984,7.271,2.8a9.875,9.875,0,0,0-.5,1.12c-.13.357-.527,1.444.137,2.108a1.353,1.353,0,0,0,.992.374,3.338,3.338,0,0,0,1.115-.237,9.867,9.867,0,0,0,1.12-.5l2.8,7.271,2.984-4-.236-6.9q1.137-.836,2.414-1.823c1.552-1.2,3.129-2.468,4.618-3.7L36.429,39.686Z" transform="translate(0 8.54)" fill="#363640"/>
    </g>
    <g id="Group_2527" data-name="Group 2527" transform="translate(1373.459 1191.338)">
      <text id="SKY_services-14" data-name="SKY services" transform="translate(58.541 38.995)" fill="#363640" font-size="33" font-family="SegoeUI, Segoe UI"><tspan x="0" y="0">SKY SERVICES</tspan></text>
      <path id="plane_3_14" data-name="plane (3)" d="M39.686,33.471,32.491,14.324a17.674,17.674,0,0,0,3.73-5.575c.836-2.162.723-3.926-.318-4.967s-2.8-1.153-4.967-.318a17.675,17.675,0,0,0-5.574,3.73L6.215,0,0,3.257,18.686,14.709c-1.232,1.489-2.5,3.066-3.7,4.618Q14,20.6,13.163,21.741l-6.9-.236-4,2.984,7.271,2.8a9.875,9.875,0,0,0-.5,1.12c-.13.357-.527,1.444.137,2.108a1.353,1.353,0,0,0,.992.374,3.338,3.338,0,0,0,1.115-.237,9.867,9.867,0,0,0,1.12-.5l2.8,7.271,2.984-4-.236-6.9q1.137-.836,2.414-1.823c1.552-1.2,3.129-2.468,4.618-3.7L36.429,39.686Z" transform="translate(0 8.54)" fill="#363640"/>
    </g>
    <g id="Group_2528" data-name="Group 2528" transform="translate(825 1260.571)">
      <text id="SKY_services-15" data-name="SKY services" transform="translate(58 38.762)" fill="#363640" font-size="33" font-family="SegoeUI, Segoe UI"><tspan x="0" y="0">SKY SERVICES</tspan></text>
      <path id="plane_3_15" data-name="plane (3)" d="M39.686,33.471,32.491,14.324a17.674,17.674,0,0,0,3.73-5.575c.836-2.162.723-3.926-.318-4.967s-2.8-1.153-4.967-.318a17.675,17.675,0,0,0-5.574,3.73L6.215,0,0,3.257,18.686,14.709c-1.232,1.489-2.5,3.066-3.7,4.618Q14,20.6,13.163,21.741l-6.9-.236-4,2.984,7.271,2.8a9.875,9.875,0,0,0-.5,1.12c-.13.357-.527,1.444.137,2.108a1.353,1.353,0,0,0,.992.374,3.338,3.338,0,0,0,1.115-.237,9.867,9.867,0,0,0,1.12-.5l2.8,7.271,2.984-4-.236-6.9q1.137-.836,2.414-1.823c1.552-1.2,3.129-2.468,4.618-3.7L36.429,39.686Z" transform="translate(0 8.54)" fill="#363640"/>
    </g>
    <g id="Group_2529" data-name="Group 2529" transform="translate(1190.639 1260.571)">
      <text id="SKY_services-16" data-name="SKY services" transform="translate(58.361 38.762)" fill="#363640" font-size="33" font-family="SegoeUI, Segoe UI"><tspan x="0" y="0">SKY SERVICES</tspan></text>
      <path id="plane_3_16" data-name="plane (3)" d="M39.686,33.471,32.491,14.324a17.674,17.674,0,0,0,3.73-5.575c.836-2.162.723-3.926-.318-4.967s-2.8-1.153-4.967-.318a17.675,17.675,0,0,0-5.574,3.73L6.215,0,0,3.257,18.686,14.709c-1.232,1.489-2.5,3.066-3.7,4.618Q14,20.6,13.163,21.741l-6.9-.236-4,2.984,7.271,2.8a9.875,9.875,0,0,0-.5,1.12c-.13.357-.527,1.444.137,2.108a1.353,1.353,0,0,0,.992.374,3.338,3.338,0,0,0,1.115-.237,9.867,9.867,0,0,0,1.12-.5l2.8,7.271,2.984-4-.236-6.9q1.137-.836,2.414-1.823c1.552-1.2,3.129-2.468,4.618-3.7L36.429,39.686Z" transform="translate(0 8.54)" fill="#363640"/>
    </g>
  </g>
</svg>
