<?xml version="1.0" encoding="UTF-8" standalone="no"?><!DOCTYPE svg PUBLIC "-//W3C//DTD SVG 1.1//EN" "http://www.w3.org/Graphics/SVG/1.1/DTD/svg11.dtd"><svg width="100%" height="100%" viewBox="0 0 761 365" version="1.1" xmlns="http://www.w3.org/2000/svg" xmlns:xlink="http://www.w3.org/1999/xlink" xml:space="preserve" xmlns:serif="http://www.serif.com/" style="fill-rule:evenodd;clip-rule:evenodd;stroke-linejoin:round;stroke-miterlimit:2;"><g><path d="M401.708,113.629c-1.263,0.233 -2.999,0.612 -5.789,1.12c-7.163,1.305 -23.457,5.266 -23.457,5.266l-8.657,12.451c0,0 3.534,4.365 4.459,5.859c0.925,1.494 0.996,4.506 -1.708,6.048c-2.704,1.542 -8.444,0.047 -10.175,-0.878c-1.731,-0.925 -9.084,-10.981 -10.578,-12.902c-1.494,-1.921 0.522,-1.66 0.522,-1.66c0,0 1.47,0.047 7.352,0.237c5.882,0.189 8.752,2.229 8.752,2.229l5.19,-9.921l-120.188,34.92c0,0 -34.179,9.843 -36.847,10.555c-2.669,0.711 -15.313,4.388 -18.278,4.506c-2.965,0.119 -7.757,-3.053 -20.297,-10.02c-12.541,-6.968 -13.875,-10.199 -13.875,-10.199c0,0 9.457,2.401 14.141,3.439c4.685,1.038 8.886,-0.936 8.886,-0.936l94.248,-27.748c0,0 56.758,-17.16 59.525,-17.97c2.767,-0.811 12.654,-4.22 15.058,-5.31c2.403,-1.09 11.869,-6.568 11.869,-6.568c0,0 -14.375,-17.634 -19.265,-22.357c-4.891,-4.724 -19.533,-10.704 -19.533,-10.704c0,0 -17.858,-4.723 -19.507,-5.254c-1.649,-0.531 -3.445,-2.18 -3.445,-2.18l0.028,-3.214l-7.657,-4.5l-5.443,-8.083c0,0 -0.491,-2.537 -0.994,-5.136c-0.503,-2.599 -3.13,-16.377 -3.13,-16.377c0,0 -27.849,4.639 -33.159,5.45c-5.31,0.81 -8.44,0.95 -8.44,0.95l-2.429,-1.202c0,0 0.613,-0.67 1.199,-1.313c0.587,-0.643 2.236,-2.236 2.795,-2.264c1.37,0 2.879,-0.447 2.879,-0.447l24.271,-6.373c0,0 -0.016,-0.306 -0.043,-0.865c-0.028,-0.559 1.063,-0.938 1.063,-0.938c0,0 7.479,-2.165 10.665,-3.087c3.186,-0.922 10.592,-2.263 12.8,-2.627c2.208,-0.363 3.73,0.128 3.73,0.128c0,0 14.241,-3.158 21.898,-4.857c7.656,-1.698 10.989,-0.604 12.371,0.173c1.382,0.777 -0.289,1.632 -0.289,1.632l-32.467,12.579c0,0 4.568,13.844 7.66,21.364c3.092,7.519 6.114,8.433 9.557,11.806c3.444,3.373 4.006,3.654 5.693,4.146c1.686,0.492 9.623,2.249 18.337,3.725c8.714,1.476 23.566,-1.898 34.318,-3.865c10.753,-1.968 27.83,2.53 31.624,3.373c16.937,2.741 25.701,12.411 25.701,12.411c0,0 84.22,-41.182 85.563,-42.202c1.344,-1.019 6.162,-8.569 6.162,-8.569l6.197,0.338c0,0 9.089,7.629 11.684,9.806c2.594,2.178 0.585,3.46 0.585,3.46l-90.618,54.427c0,0 4.996,1.963 10.645,4.014c5.649,2.051 11.801,5.145 15.184,8.239c3.382,3.095 -0.001,6.436 -0.001,6.436c0,0 0.432,0.509 3.095,3.639c2.663,3.13 2.555,5.289 -0.54,6.441c-3.094,1.151 -11.478,0.539 -11.478,0.539c0,0 -3.814,3.886 -7.987,6.153c-4.174,2.267 -11.927,2.966 -11.927,2.966c0,0 1.257,2.135 3.273,4.483c2.016,2.348 9.321,9.107 9.321,9.107c0,0 1.495,0.095 2.491,0.807c0.996,0.711 2.656,4.482 2.846,6.024c0.19,1.542 -1.85,4.127 -6.143,4.507c-4.293,0.379 -11.954,-4.649 -13.448,-6.025c-1.494,-1.375 -8.207,-8.491 -8.207,-8.491l-0.213,-2.134c0,0 5.313,0.332 7.898,0.355c2.585,0.024 6.736,0.83 6.736,0.83l-10.507,-9.961c0,0 -5.266,-0.64 -6.143,-0.498c-0.878,0.142 -1.921,-0.214 -2.016,-0.688c-0.095,-0.474 -0.315,-2.781 -0.315,-2.781c0,0 -4.073,-0.919 -7.227,-1.631c-3.155,-0.711 -18.05,-3.51 -21.157,-4.174c-0.66,-0.141 -1.189,-0.232 -1.682,-0.275l-2.246,6.917c0,0 0.214,0.89 0.505,2.103c0.291,1.212 -2.279,1.212 -4.219,0.727c-1.94,-0.485 -1.989,-1.164 -1.067,-2.473c0.921,-1.31 2.126,-0.582 2.126,-0.582l1.889,-6.446Zm18.684,-50.985c0,0 -4.725,2.64 -7.208,3.39c-5.791,1.751 -8.94,2.039 -12.739,1.066c-3.798,-0.973 -7.967,-2.04 -7.967,-2.04c0,0 -3.614,-0.647 -5.189,2.827c-1.575,3.475 -2.779,7.876 -2.27,12.184c0.51,4.308 0.139,6.485 3.66,8.338c3.52,1.853 18.807,8.338 18.807,8.338c0,0 1.529,1.031 4.911,-0.926l3.381,-1.958c0,0 17.455,-8.196 21.458,-10.292c0.358,-0.188 4.313,-2.259 4.313,-2.259c0,0 -7.227,-8.65 -10.077,-11.517c-5.557,-5.588 -11.08,-7.151 -11.08,-7.151Zm-39.449,0.472c0,0 -11.628,-2.594 -16.121,-2.038c-4.494,0.556 -9.033,3.798 -3.845,9.311c2.131,2.362 7.365,6.995 12.23,9.96c4.864,2.964 5.216,3.179 5.216,3.179c0,0 2.056,0.943 1.964,-1.048c-0.093,-1.992 -0.232,-9.775 0.88,-12.184c1.112,-2.409 2.084,-4.515 2.084,-4.515c0,0 0.742,-1.414 -0.185,-1.924c-0.926,-0.509 -2.223,-0.741 -2.223,-0.741Z" style="fill:#0d2233;"/><path d="M309.69,267.157c-0.806,-4.306 -0.595,-8.418 3.134,-11.792c1.464,-1.324 3.09,-2.078 5.319,-2.034c4.008,0.147 6.887,3.867 6.393,8.358c-0.285,2.594 -5.285,2.915 -4.87,-1.042c0.293,-2.792 -3.7,-2.223 -3.289,1.194c0,0 1.451,5.878 2.533,10.607l0.152,0.66c0.5,-0.357 1.002,-0.709 1.505,-1.062c4.006,-2.792 7.971,-5.676 12.294,-7.899c1.668,-0.858 5.05,-0.977 4.157,2.192c-0.521,1.849 -2.748,2.702 -4.65,3.942c-4.152,2.719 -8.255,5.514 -12.188,8.538c0.025,0.226 0.046,0.453 0.068,0.681c0.469,5.562 -0.348,11.268 -3.158,16.174c-2.834,4.95 -7.936,9.556 -13.815,9.159c-0.525,-0.036 -3.605,-0.774 -4.378,-3.212c-0.931,-2.935 0.514,-6.196 1.716,-9.008c0,0 1.222,-2.436 2.563,-4.329c2.473,-3.492 5.497,-6.548 8.588,-9.509c0,0 0.692,-0.377 0.521,-1.264c-0.227,-1.146 -0.524,-2.31 -0.842,-3.481c-4.343,5.36 -8.663,10.75 -12.971,16.152l-1.016,1.274c-6.05,12.347 -7.652,27.047 -14.874,37.046c-2.477,3.428 -6.182,6.444 -9.991,5.395c-2.876,-0.792 -4.94,-3.468 -4.888,-6.988c0.169,-11.515 11.735,-20.95 18.512,-29.728c0.946,-1.226 2.29,-3.056 2.29,-3.056c1.466,-6.832 2.223,-13.835 3.103,-20.802c-1.305,1.577 -2.622,3.142 -3.995,4.659c-2.665,2.943 -5.455,5.861 -8.855,7.945c-1.7,1.041 -4.072,1.383 -5.697,-0.416c-0.886,-1.014 -1.457,-2.296 -1.597,-3.624c-3.514,2.961 -7.198,4.057 -10.364,0.453c-3.514,-4 -1.419,-10.964 0.644,-15.955l0.09,-0.216c-5.313,5.478 -10.487,11.522 -13.202,18.187c-0.181,0.39 -0.2,0.403 -0.281,0.573c-1.035,2.204 -2.732,6.12 -6.417,2.967c-2.049,-1.752 -0.903,-5.137 -0.058,-8.124c0.209,-0.742 0.419,-1.484 0.629,-2.226c-2.46,2.699 -4.952,5.363 -7.743,7.556c-2.106,1.654 -5.037,2.67 -7.656,1.446c-6.377,-2.98 -2.506,-16.5 2.301,-25.714c0.676,-1.635 1.91,-2.978 3.997,-2.923c1.765,0.095 3.503,1.239 3.519,3.009c0.012,1.309 -0.854,3.029 -0.854,3.029c-1.661,3.999 -2.674,8.198 -4.137,12.293c0,0 -0.943,2.84 -0.728,4.378c0,0 2.176,-1.612 3.533,-2.928c1.862,-1.805 3.693,-3.642 5.539,-5.463c1.661,-1.634 3.343,-3.24 5.058,-4.808c0.659,-2.4 1.309,-4.803 1.944,-7.21c0,0 0.94,-4.025 5.104,-3.994c2.082,0.054 3.176,0.513 3.32,2.533c0.054,0.763 -0.217,1.488 -0.472,2.214c-0.939,2.724 -1.91,6.605 -1.91,6.605c0.26,-0.303 0.523,-0.604 0.786,-0.905c2.797,-3.177 5.683,-6.321 8.979,-9.016c1.335,-1.092 3.296,-1.786 4.956,-0.674c0,0 3.359,1.975 3.408,4.372c0.049,5.326 -2.699,10.496 -3.648,16.177c0,0 3.472,-3.434 6.634,-7.533c2.011,-4.752 5.308,-9.946 10.59,-12.612c3.925,-1.981 9.178,-1.272 10.774,4.129c0.125,-0.021 0.25,-0.039 0.376,-0.056c0.42,-0.053 0.549,-0.093 1.311,-0.07c1.087,0.061 2.171,0.497 2.754,1.428c0.965,1.544 0.428,3.471 0.198,5.391c-0.501,4.086 -1.039,8.168 -1.631,12.242c0,0 5.562,-6.713 9.343,-11.365c0.479,-0.591 1.041,-1.294 1.54,-1.92Zm-24.502,40.495c-3.618,4.953 -8.133,9.796 -9.449,15.6c-0.022,0.097 -0.041,0.195 -0.057,0.293c-0.096,0.584 -0.135,1.657 1.239,0.855c2.948,-1.721 4.318,-5.881 5.832,-9.709c0.878,-2.22 1.652,-4.479 2.377,-6.752c0,0 0.233,-0.526 0.058,-0.287Zm-22.145,-104.868c1.355,0.041 2.674,1.057 2.558,2.545c-0.11,1.403 -1.686,2.831 -1.773,2.903c-11.499,9.464 -24.097,25.009 -35.328,40.09c-9.098,12.216 -17.402,24.841 -25.905,37.633c-4.792,7.178 -9.907,14.721 -17.488,18.598c-2.211,1.131 -4.93,1.615 -7.048,0.117c-4.015,-2.839 -4.235,-8.414 -4.849,-12.917c-2.014,-14.788 1.261,-29.989 3.721,-44.611c0,0 -1.478,2.271 -3.097,4.782c-7.992,12.362 -16.396,24.442 -24.908,36.438c-6.745,9.389 -14.448,18.94 -24.942,23.848c-4.306,2.014 -10.323,0.034 -11.343,-5.836c-2.338,-20.699 4.742,-43.523 16.568,-57.51c2.215,-2.619 5.235,-4.846 8.832,-4.884c4.132,-0.042 5.408,1.345 4.41,3.828c-0.35,0.869 -1.596,1.605 -1.596,1.605l-2.201,1.417c-0.156,0.116 -0.309,0.235 -0.462,0.355c-8.297,6.614 -12.184,17.789 -14.87,28.411c-2.206,8.726 -5.617,18.702 -2.699,25.455c1.162,2.69 6.622,-1.878 10.239,-5.671c4.238,-4.444 8.005,-9.333 11.772,-14.213c0,0 3.447,-4.315 6.232,-8.05c8.338,-11.187 15.844,-23.007 23.334,-34.81c1.486,-2.807 3.293,-5.453 5.232,-7.988c0,0 2.606,-3.085 5.175,-2.282c2.658,0.233 5.558,1.566 5.741,4.673c0.146,2.475 -0.869,6.68 -1.448,10.336c-1.863,11.77 -4.343,23.435 -5.219,35.34c0,0 -1.834,9.738 0.164,14.529c0.98,2.351 5.366,-1.981 9.401,-6.572c9.522,-10.832 16.251,-23.903 24.388,-35.731l0.232,-0.336c11.216,-15.811 23.67,-30.757 37.036,-44.77c3.05,-3.197 6.636,-6.757 10.141,-6.722Zm50.31,82.106c-3.716,3.836 -7.598,8.001 -9.089,12.937c-0.216,0.718 -0.784,1.561 0.68,1.276c2.81,-0.545 4.252,-2.659 5.485,-4.709c1.75,-2.91 2.837,-6.235 3.066,-9.624c0,0 -0.094,0.072 -0.142,0.12Zm339.701,-25.142c0.653,-1.841 1.349,-3.673 2.13,-5.518c0.597,-1.331 1.854,-2.344 3.347,-2.287c2.62,0.172 4.471,2.961 3.445,5.925c-0.505,1.461 -1.122,2.852 -1.122,2.852l5.256,-7.495c0.056,-0.07 0.113,-0.14 0.173,-0.207c2.486,-2.762 4.711,-6.985 8.268,-4.894c2.722,1.599 1.499,5.837 0.842,9.921l-0.082,0.52c0.261,-0.363 0.526,-0.724 0.791,-1.084c3.544,-4.786 7.44,-9.329 11.28,-13.903c0,0 3.564,-5.614 7.974,-3.409c0,0 2.794,2.355 2.094,6.116c-1.015,8.218 -4.318,15.945 -5.104,24.122l-0.007,0.082c5.187,-3.727 10.09,-7.848 14.98,-11.982c-0.561,-3.875 -0.146,-7.603 3.219,-10.648c1.465,-1.325 3.077,-2.072 5.317,-2.035c4.003,0.147 6.877,3.904 6.395,8.356c-0.279,2.574 -5.047,3.117 -4.86,-1.143c0.023,-1.319 -1.777,-2.181 -2.713,-1.364c-0.901,0.786 -0.578,2.715 -0.578,2.715c0.099,0.372 0.197,0.744 0.294,1.117c0.805,3.131 1.51,6.286 2.231,9.436l0.152,0.661c0.5,-0.357 1.002,-0.71 1.504,-1.062c3.985,-2.777 7.977,-5.609 12.219,-7.86c1.689,-0.896 5.219,-1.011 4.213,2.22c-0.572,1.837 -2.761,2.655 -4.631,3.875c-4.153,2.717 -8.257,5.512 -12.187,8.537c0.653,5.908 -0.256,12.011 -3.234,17.105c0,0 -6.024,9.193 -13.394,8.924c-3.43,-0.126 -3.916,-1.469 -4.478,-2.754c-1.313,-3 0.268,-6.522 1.672,-9.79c0,0 1.334,-2.559 2.962,-4.752c2.368,-3.193 5.18,-6.023 8.055,-8.776c0,0 0.692,-0.377 0.522,-1.264c-0.169,-0.852 -0.358,-1.7 -0.555,-2.545c-0.244,-1.037 -0.53,-2.094 -0.815,-3.16l-12.755,10.824c-3.082,2.462 -7.725,4.298 -10.074,0.392c-3.197,-5.314 0.302,-13.185 2.248,-20.264c0.603,-2.221 1.254,-5.209 1.254,-5.209c-5.782,6.531 -10.738,13.819 -15.801,20.977c-1.743,2.366 -6.064,0.963 -6.355,-2.269c-0.265,-2.953 0.991,-6.647 1.861,-10.198c0,0 -3.392,5.047 -6.46,9.739c-2.355,3.591 -4.713,7.233 -7.483,10.453c-0.51,0.592 -2.201,2.221 -4.054,1.525c-2.615,-0.982 -2.663,-4.166 -1.842,-7.945c-2.08,2.246 -8.633,9.192 -12.564,4.584c-1.596,-1.871 -2.048,-4.423 -2.103,-6.875c0,0 -2.513,3.343 -4.711,5.866c-3.538,4.061 -8.621,8.54 -12.124,5.238c-1.922,-1.812 -2.29,-4.844 -1.422,-7.441c-1.329,0.964 -2.72,1.914 -4.145,2.825c0,0 -3.493,2.1 -6.674,3.215c-3.579,1.255 -7.998,1.803 -10.522,-1.398c-3.277,-4.157 -1.661,-10.022 0.038,-14.327c1.108,-2.808 2.734,-5.409 4.737,-7.674c0,0 5.512,-5.774 10.947,-5.71c2.407,0.075 5.054,1.647 5.019,4.676c-0.059,5.044 -5.149,9.063 -10.284,12.797c-1.541,1.121 -3.143,2.16 -4.82,3.067c0,0 -2.678,5.245 3.221,3.437c6.981,-2.14 12.451,-7.993 18.234,-13.076c3.689,-5.761 8.669,-11.296 14.843,-11.544c0.124,-0.003 0.248,-0.004 0.371,-0.003c2.843,0.067 5.591,2.082 5.786,4.947c0.339,4.998 -2.389,10.032 -1.324,15.308c0.105,0.518 -0.128,1.246 1.033,0.549c4.054,-2.434 6.402,-7.494 10.35,-11.038Zm-83.586,22.343c-0.259,-5.348 1.567,-11.159 4.575,-18.407c0.758,-2.479 1.525,-4.955 2.311,-7.425c0.5,-1.511 1.335,-3.207 3.397,-3.107c2.497,0.2 3.801,3.088 3.203,5.494c0,0 3.675,-5.418 6.12,-6.51c3.072,-1.372 6.42,2.696 5.661,6.459c-0.639,3.165 -2.957,6.314 -2.583,8.787c0,0 -0.09,2.291 -1.837,2.421c-3.242,0.243 -4.372,-4.276 -3.055,-8.757c-4.627,6.11 -8.454,12.876 -11.246,19.869c-0.553,1.384 -1.636,4.18 -3.889,3.797c-1.273,-0.216 -2.219,-1.297 -2.657,-2.621Zm141.599,-4.707c-3.688,3.807 -7.462,7.976 -9.036,12.769c-0.212,0.644 -0.974,1.756 0.628,1.444c2.794,-0.544 4.253,-2.662 5.484,-4.709c1.749,-2.91 2.837,-6.234 3.065,-9.626c0,0 -0.093,0.073 -0.141,0.122Zm-328.729,-18.353c2.089,0.055 3.178,0.508 3.32,2.535c0.053,0.764 -0.218,1.488 -0.472,2.212c-0.938,2.724 -1.91,6.605 -1.91,6.605c0.26,-0.303 0.523,-0.604 0.786,-0.905c0.329,-0.374 0.66,-0.746 0.993,-1.118c2.511,-2.78 5.114,-5.55 7.985,-7.898c1.335,-1.092 3.299,-1.788 4.957,-0.674c0,0 3.627,1.825 3.384,5.147c-0.377,5.16 -2.743,10.123 -3.624,15.402c0,0 -0.33,0.426 0.244,-0.055c3.402,-2.923 6.043,-6.68 8.513,-10.431c0.918,-1.365 2.481,-2.721 4.024,-1.711c2.692,1.762 -0.551,6.48 -3.777,10.566c-2.839,3.595 -5.96,7.563 -10.346,8.273c-2.028,0.329 -4.118,-0.335 -5.465,-1.948c-3.385,-4.056 -1.293,-10.888 0.75,-15.832l0.089,-0.216c-5.305,5.47 -10.473,11.488 -13.202,18.187c-0.18,0.39 -0.199,0.403 -0.281,0.573c-0.925,1.973 -3.323,5.905 -6.615,2.789c-1.847,-1.749 -0.755,-4.778 0.14,-7.945c1.843,-6.519 3.68,-13.024 5.402,-19.562c0,0 0.921,-4.025 5.105,-3.994Zm-92.515,4.173c-5.158,2.402 -8.415,7.996 -10.506,13.752c3.976,-3.48 8.396,-7.078 10.12,-11.838c0.286,-0.788 0.503,-1.966 0.386,-1.914Zm343.612,-3.455c-3.617,3.114 -6.392,7.154 -8.346,11.529l-0.046,0.104c3.223,-3.547 6.105,-7.418 8.405,-11.606c0,0 0.113,-0.134 -0.013,-0.027Zm-397.02,-8.952c1.973,0.036 3.961,2.147 2.766,4.283c-1.684,3.013 -8.479,3.922 -7.785,-0.677c0.316,-2.098 2.732,-3.614 5.019,-3.606Zm188.42,-12.847c5.168,0.216 3.788,10.929 0.399,16.681c-1.405,2.387 -3.261,5.458 -5.734,5.254c-0.787,-0.064 -1.349,-1.204 -1.349,-1.204c-0.187,-1.175 0.738,-2.33 1.102,-3.726c0.721,-2.758 0.587,-5.742 -0.036,-8.149c0,0 -0.438,-6.277 3.385,-8.218c0.699,-0.355 1.27,-0.648 2.233,-0.638Z" style="fill:#0d2233;fill-rule:nonzero;"/><path d="M210.478,97.172c0,0 -261.811,79.434 -166.092,208.863c24.137,28.094 82.431,49.748 370.817,28.094c288.386,-21.653 345.463,-30.391 345.463,-30.391c0,0 -195.15,42.33 -545.512,59.428c-145.752,7.113 -204.479,-25.836 -214.321,-96.702c-5.853,-34.789 18.701,-78.741 87.598,-123.032c49.621,-31.899 122.047,-46.26 122.047,-46.26Z" style="fill:#0d2233;"/><path d="M448.105,116.411c-0.345,1.78 -0.602,0.541 -0.205,-1.871c1.496,-9.114 6.262,-18.058 11.399,-24.091c11.253,-13.212 23.038,-10.821 25.428,-9.689c6.058,2.379 8.6,8.406 9.563,14.313c0.49,3.005 0.302,4.873 0,3.021c-0.963,-5.908 -3.505,-11.935 -9.563,-14.314c-2.39,-1.132 -14.175,-3.523 -25.428,9.689c-4.921,5.779 -9.501,14.23 -11.194,22.942Z" style="fill:#0d2233;"/><path d="M494.29,106.303l0,3.02c0,0 -0.433,1.83 -1.195,4.374c-0.979,3.271 -2.501,7.721 -4.341,10.977c-3.272,5.788 -6.795,10.066 -11.702,14.344c-4.908,4.279 -11.362,5.042 -15.729,4.153c-8.423,-3.333 -12.407,-10.571 -13.549,-18.066c-0.324,-2.129 -0.176,-4.359 -0.024,-3.344c1.123,7.504 5.179,15.265 13.573,18.39c4.457,0.907 10.821,0.126 15.729,-4.152c4.907,-4.279 8.43,-8.557 11.702,-14.345c1.61,-2.849 2.976,-6.612 3.949,-9.699c1.003,-3.186 1.587,-5.652 1.587,-5.652Z" style="fill:#0d2233;"/><path d="M585.875,208.002c0.614,2.255 0.921,4.6 0.921,7.035c0,2.435 -0.219,4.735 -0.657,6.9c-0.439,2.165 -1.119,4.397 -2.04,6.697c-0.921,2.3 -1.93,4.419 -3.026,6.359c-1.097,1.939 -2.391,3.968 -3.882,6.088c-1.491,2.119 -2.895,3.991 -4.21,5.614c-1.316,1.624 -2.808,3.383 -4.474,5.277c-6.404,7.305 -13.904,14.115 -22.5,20.429c4.649,0.27 9.123,0.631 13.421,1.082c0.789,0.09 1.359,0.496 1.71,1.218c0.351,0.721 0.373,1.398 0.066,2.029c-0.307,0.631 -0.899,0.947 -1.776,0.947c-6.93,-0.361 -13.684,-0.496 -20.263,-0.406c-16.492,10.914 -36.667,20.114 -60.527,27.6c-11.404,3.608 -19.869,5.953 -25.395,7.035c-2.368,0.451 -4.189,0.767 -5.461,0.947c-1.271,0.18 -2.982,0.158 -5.131,-0.068c-2.149,-0.225 -3.838,-0.834 -5.066,-1.826c-1.667,-1.173 -2.632,-2.503 -2.895,-3.991c-0.263,-1.488 0,-2.886 0.79,-4.194c0.789,-1.308 1.93,-2.638 3.421,-3.991c1.491,-1.353 2.851,-2.436 4.079,-3.247c1.228,-0.812 2.5,-1.579 3.816,-2.3c7.193,-4.059 14.868,-7.509 23.026,-10.35c8.158,-2.841 16.667,-5.119 25.527,-6.832c2.193,-5.592 6.14,-15.108 11.842,-28.547c1.052,-2.345 2.456,-5.795 4.21,-10.35c1.755,-4.555 3.246,-8.343 4.474,-11.364c1.228,-3.022 2.807,-6.449 4.737,-10.282c1.93,-3.834 3.859,-7.148 5.789,-9.944c0.263,-0.361 0.592,-0.474 0.987,-0.339c0.395,0.136 0.548,0.429 0.461,0.88c-0.79,4.419 -1.996,8.952 -3.619,13.597c-1.623,4.645 -3.881,10.282 -6.776,16.911c-2.895,6.629 -4.737,10.936 -5.526,12.92c-4.737,11.816 -8.158,20.249 -10.264,25.3c11.667,-1.894 23.553,-2.796 35.658,-2.706c12.632,-8.478 23.246,-18.084 31.843,-28.817c3.684,-4.69 6.666,-9.087 8.947,-13.191c2.281,-4.104 3.597,-8.365 3.948,-12.785c0.263,-3.608 -0.242,-6.9 -1.514,-9.876c-1.272,-2.977 -3.158,-5.412 -5.658,-7.306c-2.5,-1.894 -5.504,-3.247 -9.013,-4.059c-11.754,-2.435 -26.754,-1.533 -45,2.706c-14.211,3.247 -27.632,8.614 -40.263,16.1c-12.632,7.486 -23.86,16.686 -33.685,27.599c-0.263,0.361 -0.57,0.564 -0.921,0.609c-0.351,0.045 -0.658,-0.022 -0.921,-0.203c-0.263,-0.18 -0.482,-0.428 -0.658,-0.744c-0.175,-0.316 -0.263,-0.654 -0.263,-1.015c0,-0.36 0.132,-0.676 0.395,-0.947c13.421,-14.972 29.167,-26.765 47.237,-35.378c18.07,-8.614 36.93,-13.282 56.579,-14.003c2.369,-0.181 4.847,-0.203 7.434,-0.068c2.588,0.135 5.132,0.316 7.632,0.541c2.5,0.226 4.934,0.744 7.303,1.556c2.368,0.812 4.517,1.827 6.447,3.044c1.93,1.218 3.662,2.864 5.197,4.938c1.536,2.075 2.698,4.465 3.487,7.171Zm-86.579,84.016c10.702,-4.329 20.482,-9.11 29.342,-14.341c-10.438,0.541 -20.307,1.669 -29.605,3.382c-1.491,3.518 -2.851,6.54 -4.079,9.065c-0.614,1.263 -1.601,1.601 -2.961,1.015c-1.359,-0.587 -1.82,-1.511 -1.381,-2.774c0.263,-0.721 1.052,-2.751 2.368,-6.088c-14.211,2.976 -27.193,7.351 -38.948,13.123c-0.087,0.091 -0.526,0.316 -1.315,0.677c-0.79,0.361 -1.448,0.676 -1.974,0.947c-0.526,0.27 -1.25,0.631 -2.171,1.082c-0.921,0.451 -1.711,0.902 -2.368,1.353c-0.658,0.451 -1.36,0.947 -2.106,1.488c-0.745,0.542 -1.338,1.06 -1.776,1.556c-0.439,0.496 -0.79,1.015 -1.053,1.556c-0.263,0.541 -0.307,1.082 -0.131,1.624c0.175,0.541 0.526,1.082 1.052,1.623c0.614,0.541 1.535,0.834 2.763,0.879c1.229,0.046 2.654,-0.09 4.277,-0.405c1.623,-0.316 3.092,-0.654 4.408,-1.015c1.316,-0.361 2.785,-0.789 4.408,-1.285c1.622,-0.496 2.609,-0.79 2.96,-0.88c14.562,-4.059 27.325,-8.253 38.29,-12.582Z" style="fill:#0d2233;fill-rule:nonzero;"/><path d="M536.762,270.83c0,0 4.154,-2.715 7.226,-5.04c8.785,-6.646 16.838,-14.256 23.765,-22.79c0,0 2.781,-3.528 4.779,-6.412c6.64,-9.59 12.727,-22.105 4.539,-32.498c-2.759,-3.502 -6.979,-5.649 -11.331,-6.694c0,0 -2.024,-0.406 -3.444,-0.614c-16.021,-2.346 -32.732,0.723 -47.999,5.037c-25.451,7.191 -48.689,21.913 -66.367,41.506c0,0 -2.598,1.906 -4.178,0.12c-2.66,-3.009 3.191,-7.915 7.702,-12.263c25.769,-24.846 60.765,-40.161 96.409,-41.64c0,0 5.108,-0.252 8.988,-0.031c0.967,0.055 1.933,0.116 2.899,0.185c8.738,0.62 18.02,2.871 23.528,10.161c7.415,9.812 5.275,24.298 -0.867,35.398c-7.948,14.364 -19.886,26.038 -32.439,35.78l-0.382,0.295c3.451,0.244 6.744,0.357 10.201,0.896c3.112,0.575 4.563,6.69 -0.389,6.748c-6.517,-0.333 -13.065,-0.483 -19.605,-0.414c0,0 -5.545,3.448 -10.074,6.035c-21.836,12.476 -45.906,21.028 -70.119,27.183c-1.849,0.47 -3.707,0.91 -5.576,1.293c0,0 -4.34,0.968 -6.913,1.155c-3.532,0.257 -7.319,0.023 -10.134,-2.094c-3.357,-2.526 -4.747,-7.203 -1.89,-11.109c3.34,-4.566 8.421,-7.507 13.123,-10.053c14.312,-7.75 29.977,-12.826 46.053,-16.026c0,0 1.116,-2.495 2.148,-5.029c9.007,-22.056 15.923,-45.615 28.365,-64.268c1.155,-1.731 4.994,-2.767 4.189,1.533c-3.556,18.471 -12.791,35.308 -19.895,52.928c-1.764,4.368 -3.533,8.734 -5.327,13.09c0.523,-0.079 1.046,-0.155 1.57,-0.231c10.422,-1.478 20.886,-2.175 31.445,-2.137Zm15.521,-77.361c12.528,0.102 26.886,2.594 30.448,16.402c3.409,13.21 -6.347,26.766 -13.789,35.77c-8.54,10.331 -18.673,19.216 -29.71,26.761c-2.631,1.799 -5.673,1.008 -8.665,1.078c-3.903,0.092 -7.802,0.289 -11.694,0.594c-5.694,0.448 -11.369,1.135 -17.003,2.042c0,0 -1.877,-0.174 -1.403,-1.778c7.023,-16.892 14.463,-33.685 21.032,-50.94c1.859,-4.883 3.479,-9.87 4.578,-14.987c-7.824,12.321 -11.906,26.551 -17.602,39.4l-0.096,0.214c-4.016,9.475 -8.061,18.936 -11.824,28.503c0,0 -0.345,0.613 -0.959,0.798c-18.053,3.512 -35.533,8.831 -51.223,18.85c-4.64,2.964 -11.268,7.729 -7.562,12.341c2.884,3.589 8.454,3.449 12.115,2.848c15.896,-2.608 31.428,-7.947 46.457,-13.642c15.025,-5.694 29.6,-12.648 43.068,-21.534c0,0 6.404,-0.276 11.376,-0.167c3.21,0.071 6.419,0.195 9.626,0.359c1.248,-0.015 0.818,-1.513 -1.773,-1.773c-3.908,-0.379 -7.826,-0.679 -11.75,-0.913c0,0 -0.7,0.002 -1.066,-0.682c-0.483,-0.903 0.64,-1.849 1.567,-2.541c14.713,-11.054 28.937,-24.112 36.209,-41.692c2.583,-6.244 3.762,-13.214 2.141,-19.833c-2.307,-9.418 -11.974,-15.582 -22.858,-16.484c-1.101,-0.091 -2.204,-0.173 -3.307,-0.246c-3.309,-0.219 -6.623,-0.35 -9.926,-0.121c0,0 -6.721,0.3 -12.036,0.939c-34.063,4.097 -66.22,21.043 -89.56,46.306c-0.91,0.986 -2.173,1.752 -1.322,2.462c0.009,0.008 0.193,-0.17 0.193,-0.17c26.692,-29.584 66.577,-47.767 104.973,-48.163c0.448,-0.003 0.897,-0.003 1.345,-0.001Zm-23.448,82.927c1.896,0.493 1.102,1.927 0.461,2.398c-20.683,12.173 -43.513,20.212 -67.259,26.864c-6.276,1.758 -12.881,4.855 -18.51,3.661c-2.753,-0.584 -4.846,-3.643 -3.023,-6.548c2.696,-4.296 8.802,-5.955 12.739,-8.395c-1.072,0.719 2.134,-1.093 4.723,-2.257c10.887,-4.895 22.375,-8.475 34.079,-10.969c1.119,-0.239 2.58,0 2.141,1.602c-0.797,2.023 -1.669,4.026 -2.363,6.076c-0.37,1.164 1.408,1.805 1.946,0.768c1.464,-2.946 2.775,-5.997 4.071,-9.044c0,0 0.353,-0.593 0.959,-0.768c9.88,-1.809 19.809,-2.877 29.771,-3.401c0.088,0.004 0.176,0.008 0.265,0.013Zm-5.912,2.94c-7.636,0.576 -15.247,1.494 -22.788,2.84c0,0 -2.16,5.243 -4.177,8.821c-1.741,2.964 -8.116,1.138 -6.506,-3.234c0.559,-1.492 1.435,-3.707 1.435,-3.707c-12.124,2.695 -24.057,6.627 -35.188,11.976c-0.209,0.1 -4.332,2.118 -6.879,3.399c-2.664,1.366 -5.993,3.129 -6.475,5.449c-0.507,2.445 5.901,1.962 10.463,0.765c15.422,-4.044 30.615,-8.808 45.499,-14.631l0.508,-0.2c8.24,-3.343 16.317,-7.1 24.118,-11.378c0,0 0.516,-0.139 -0.01,-0.1Z" style="fill:#0d2233;"/></g></svg>