<svg id="plane_1_" data-name="plane (1)" xmlns="http://www.w3.org/2000/svg" width="83.717" height="62.546" viewBox="0 0 83.717 62.546">
  <rect id="Rectangle_1" data-name="Rectangle 1" width="79.272" height="3.447" transform="translate(2.722 59.1)" fill="#fff"/>
  <path id="Path_15876" data-name="Path 15876" d="M80.794,66.23c-5.757-3.355-12.3-1.573-16.772.513L50.687,72.961,27.753,61.426,14.1,62.013l18.938,19.2L20.964,86.945,8.407,82.166,0,86.086l7.6,9.435a3.471,3.471,0,0,0-.87,3.722c.863,1.849,3.412,2.782,7.593,2.781q1.286,0,2.778-.118a40.518,40.518,0,0,0,12.679-2.985L77.444,76.695c4.117-1.92,6.168-3.936,6.269-6.163C83.766,69.376,83.3,67.692,80.794,66.23Zm-4.806,7.341L28.321,95.8a36.763,36.763,0,0,1-11.089,2.639c-4.175.375-6.408-.1-7.152-.5a6.589,6.589,0,0,1,.967-1l1.238-1.09-6.843-8.5,3.1-1.446,12.57,4.784,17.779-8.446L22,65.123l5-.215L50.63,76.79l14.848-6.924c5.423-2.529,9.992-2.75,13.58-.659h0c.9.527,1.22.986,1.212,1.167C80.27,70.387,80.166,71.623,75.987,73.571Z" transform="translate(0 -61.426)" fill="#fff"/>
</svg>
