<svg id="plane_2_" data-name="plane (2)" xmlns="http://www.w3.org/2000/svg" width="72.502" height="85.024" viewBox="0 0 72.502 85.024">
  <path id="Path_15877" data-name="Path 15877" d="M108.7,53.2h0c-1.118-6.5-6.627-10.32-11.051-12.383L84.487,34.681,78.654,10,69.5,0,67,26.543,55.026,21.065,50.669,8.527,42.331,4.639,40.013,16.39a3.439,3.439,0,0,0-3.371,1.717c-1.031,2.211.508,5.429,4.575,9.565a40.056,40.056,0,0,0,10.317,7.7l47.093,21.96A14.717,14.717,0,0,0,104.537,59a4.4,4.4,0,0,0,2.758-.837C108.207,57.468,109.193,56.041,108.7,53.2Zm-3.5,2.223c-.01.007-1,.706-5.118-1.214L52.99,32.252a36.3,36.3,0,0,1-9.018-6.7c-2.915-2.9-3.987-4.881-4.171-5.709a6.667,6.667,0,0,1,1.345.1l1.631.248L44.861,9.622l3.03,1.413,4.362,12.552L69.971,31.7,72.2,8.058l3.3,3.61L81.518,37.1,96.2,43.943c5.351,2.5,8.416,5.807,9.111,9.844h0C105.481,54.8,105.34,55.321,105.2,55.426Z" transform="translate(-36.332)" fill="#717380"/>
  <path id="Path_15878" data-name="Path 15878" d="M141.727,246.461q.148.013.3.013a3.322,3.322,0,1,0-2.141-5.867h0a3.322,3.322,0,0,0,1.846,5.854Zm-.715-3.4a1.008,1.008,0,1,1,.232.736A1,1,0,0,1,141.012,243.064Z" transform="translate(-119.243 -199.407)" fill="#717380"/>
  <path id="Path_15879" data-name="Path 15879" d="M204.264,275.5a3.32,3.32,0,1,0-2.547-1.185A3.308,3.308,0,0,0,204.264,275.5Zm-1.007-3.408a1.009,1.009,0,1,1,.232.736A1,1,0,0,1,203.257,272.091Z" transform="translate(-174.287 -225.076)" fill="#717380"/>
  <path id="Path_15880" data-name="Path 15880" d="M346.549,341.841A3.32,3.32,0,1,0,344,340.656,3.308,3.308,0,0,0,346.549,341.841Zm-.651-4.093a1.008,1.008,0,1,1-.124,1.421A1,1,0,0,1,345.9,337.748Z" transform="translate(-300.117 -283.744)" fill="#717380"/>
  <rect id="Rectangle_2" data-name="Rectangle 2" width="69.059" height="3.447" transform="translate(1.721 81.578)" fill="#717380"/>
</svg>
