<svg xmlns="http://www.w3.org/2000/svg" width="628.845" height="363.75" viewBox="0 0 628.845 363.75">
  <g id="Group_2602" data-name="Group 2602" transform="translate(-732.155 -4973.462)">
    <path id="Path_16526" data-name="Path 16526" d="M-7467,15488s133-154,23-176-212,142-212,142-22,38-14,82,62,0,62,0,14-42.029,0-68.015-76-71.985-76-71.985-170-20-56,206,524-178,524-178" transform="translate(8513 -10335)" fill="none" stroke="#fff" stroke-width="3" stroke-dasharray="20"/>
    <path id="plane_3_" data-name="plane (3)" d="M93.444,78.81,76.5,33.728A41.616,41.616,0,0,0,85.285,20.6c1.968-5.091,1.7-9.245-.748-11.7s-6.6-2.716-11.7-.748a41.618,41.618,0,0,0-13.126,8.782L14.634,0,0,7.67,44,34.635c-2.9,3.506-5.887,7.218-8.711,10.873q-2.323,3.005-4.291,5.684l-16.251-.556L5.329,57.662l17.121,6.6a23.251,23.251,0,0,0-1.184,2.636c-.307.841-1.241,3.4.322,4.963a3.187,3.187,0,0,0,2.336.879,7.86,7.86,0,0,0,2.627-.558,23.234,23.234,0,0,0,2.636-1.184l6.6,17.121L42.808,78.7,42.252,62.45q2.678-1.968,5.684-4.291c3.654-2.825,7.367-5.81,10.873-8.711l26.965,44ZM7.7,7.928l7.188-3.767L56.8,19.911c-2.68,2.862-6.357,7.034-10.344,11.771Zm8.245,46.556,12.376.423q-2.335,3.333-3.971,6.005L13.129,56.589ZM38.96,77.5l-2.1,2.82L32.531,69.09q2.666-1.631,6.005-3.971ZM47.085,54c-15.2,11.875-20.673,14.333-22.461,14.819.486-1.788,2.944-7.264,14.819-22.461C47.8,35.666,57.411,24.607,61.526,20.493a38.685,38.685,0,0,1,12.689-8.785,13.659,13.659,0,0,1,4.76-1.044,3.97,3.97,0,0,1,2.873.933c1.282,1.282,1.241,4.136-.111,7.633a38.684,38.684,0,0,1-8.784,12.689C68.838,36.033,57.778,45.646,47.085,54Zm14.677-7.018C66.5,43,70.671,39.319,73.533,36.64l15.75,41.914-3.767,7.188Z" transform="translate(1267.556 5018.766)" fill="#fff"/>
  </g>
</svg>
