<svg xmlns="http://www.w3.org/2000/svg" width="14.742" height="19.351" viewBox="0 0 14.742 19.351">
  <g id="pin_1_" data-name="pin (1)" transform="translate(0 0)">
    <g id="Group_2484" data-name="Group 2484" transform="translate(0 0)">
      <g id="Group_2483" data-name="Group 2483">
        <path id="Path_16513" data-name="Path 16513" d="M75.355,5.07A7.213,7.213,0,0,0,70.678.355,7.414,7.414,0,0,0,60.971,7.4a7.31,7.31,0,0,0,1.471,4.419l5.9,7.527,5.893-7.517.007-.01A7.453,7.453,0,0,0,75.355,5.07ZM73.34,11.139l-5,6.374-5-6.374A6.185,6.185,0,0,1,62.105,7.4a6.281,6.281,0,0,1,8.237-5.966,6.065,6.065,0,0,1,3.929,3.967A6.331,6.331,0,0,1,73.34,11.139Z" transform="translate(-60.971 0)" fill="#f80505"/>
      </g>
    </g>
    <g id="Group_2486" data-name="Group 2486" transform="translate(3.403 3.436)">
      <g id="Group_2485" data-name="Group 2485">
        <path id="Path_16514" data-name="Path 16514" d="M154.963,90.895a3.969,3.969,0,1,0,3.969,3.969A3.974,3.974,0,0,0,154.963,90.895Zm0,6.8a2.835,2.835,0,1,1,2.835-2.835A2.839,2.839,0,0,1,154.963,97.7Z" transform="translate(-150.994 -90.895)" fill="#f80505"/>
      </g>
    </g>
  </g>
</svg>
