<svg id="pharmacy" xmlns="http://www.w3.org/2000/svg" width="38.428" height="36" viewBox="0 0 38.428 36">
  <g id="Group_2505" data-name="Group 2505" transform="translate(0 0)">
    <path id="Path_16539" data-name="Path 16539" d="M37.677,21.894h-11.2a6.545,6.545,0,0,0-6.4,5v0l-.114.484V23.53a3.751,3.751,0,1,0-1.5.017v3.835l-.114-.484v0a6.545,6.545,0,0,0-6.4-5H.751A.751.751,0,0,0,0,22.645v.613A3.867,3.867,0,0,0,2.065,26.67v.318A3.868,3.868,0,0,0,4.129,30.4v.318a3.888,3.888,0,0,0,3.9,3.868H18.463v2.368H14.6a2.723,2.723,0,0,0,0,5.446h3.863v2.408h-3.72a2.4,2.4,0,0,0,0,4.79h3.72v1.825a.751.751,0,0,0,1.5,0V49.6h5.913a.751.751,0,1,0,0-1.5H19.964V46.308h3.962a2.705,2.705,0,0,0,0-5.411H19.964V38.454h3.982a2.688,2.688,0,0,0,2.408-3.869H30.4a3.888,3.888,0,0,0,3.9-3.868V30.4a3.868,3.868,0,0,0,2.065-3.412V26.67a3.867,3.867,0,0,0,2.065-3.412v-.613a.751.751,0,0,0-.751-.751Zm-20.754-2a2.25,2.25,0,1,1,2.25,2.22A2.237,2.237,0,0,1,16.923,19.893ZM8.029,33.084a2.388,2.388,0,0,1-2.395-2.229h5.244a.751.751,0,1,0,0-1.5H5.964A2.388,2.388,0,0,1,3.57,27.125h7.239a.751.751,0,1,0,0-1.5H3.9A2.388,2.388,0,0,1,1.505,23.4H11.952a5.048,5.048,0,0,1,4.937,3.849l1.377,5.84ZM18.463,48.1h-3.72a.894.894,0,0,1,0-1.788h3.72Zm5.463-5.7a1.2,1.2,0,0,1,0,2.408H19.964V42.4Zm-5.463-1.5H14.6a1.222,1.222,0,0,1,0-2.443h3.863Zm6.664-5.128a1.183,1.183,0,0,1-1.18,1.184H19.964V34.585h3.9a1.2,1.2,0,0,1,1.262,1.184Zm9.4-10.145H30.887a.751.751,0,0,0,0,1.5h3.971a2.388,2.388,0,0,1-2.394,2.228H27.549a.751.751,0,1,0,0,1.5h5.244A2.388,2.388,0,0,1,30.4,33.084H20.162l1.377-5.84A5.048,5.048,0,0,1,26.476,23.4H36.922a2.388,2.388,0,0,1-2.395,2.229Z" transform="translate(0 -16.172)" fill="#f80505"/>
    <path id="Path_16540" data-name="Path 16540" d="M356.5,143.5a.751.751,0,1,0-.276-.911A.759.759,0,0,0,356.5,143.5Z" transform="translate(-329.433 -132.673)" fill="#f80505"/>
  </g>
</svg>
