<svg xmlns="http://www.w3.org/2000/svg" width="31.76" height="36.873" viewBox="0 0 31.76 36.873">
  <g id="cheers" transform="translate(-35.498 0)">
    <path id="Path_16541" data-name="Path 16541" d="M284.656,7.977a.718.718,0,0,0,.86-.544l.7-3.092a.719.719,0,1,0-1.4-.317l-.7,3.092A.72.72,0,0,0,284.656,7.977Z" transform="translate(-230.693 -3.213)" fill="#f80505"/>
    <path id="Path_16542" data-name="Path 16542" d="M221.609,3.783a.72.72,0,1,0,1.216-.77L221.135.336a.72.72,0,1,0-1.216.77Z" transform="translate(-171.036 0)" fill="#f80505"/>
    <path id="Path_16543" data-name="Path 16543" d="M325.639,35.209a.716.716,0,0,0,.384-.112L328.7,33.4a.72.72,0,0,0-.769-1.217l-2.676,1.694a.72.72,0,0,0,.385,1.329Z" transform="translate(-268.577 -29.764)" fill="#f80505"/>
    <path id="Path_16544" data-name="Path 16544" d="M65.989,80.194,61.434,78.23l-1.46-5.459a7.981,7.981,0,0,0,4.364-4.007,6.737,6.737,0,0,0,.168-5.568c-.005-.013-.05-.117-.067-.155l-3.131-7.013a.719.719,0,0,0-.843-.4l-6.882,1.846.106-1.02a.72.72,0,0,0-.524-.769l-2.253-.622a.72.72,0,0,0-.382,1.389l1.666.46-.307,2.971a7.17,7.17,0,0,0-6.574.351,5.806,5.806,0,0,1-5.49.1l2.688-6.019,1.816.487a.72.72,0,0,0,.372-1.391l-2.408-.647a.719.719,0,0,0-.843.4l-3.133,7.015a6.736,6.736,0,0,0,.1,5.721,7.986,7.986,0,0,0,4.365,4.009l-1.46,5.459-4.555,1.962a2.006,2.006,0,0,0,.323,3.83l.013,0,6.368,1.707.011,0a2.556,2.556,0,0,0,.622.079,1.945,1.945,0,0,0,1.662-.853,2.072,2.072,0,0,0-.09-2.378l-2.964-3.98,1.46-5.458a7.712,7.712,0,0,0,1.277.106A7.988,7.988,0,0,0,49.955,69q.174-.12.339-.249a6.878,6.878,0,0,0,2.794,3.3,8.065,8.065,0,0,0,4.235,1.2,7.7,7.7,0,0,0,1.261-.1l1.46,5.459-2.964,3.98a2.073,2.073,0,0,0-.092,2.378,1.946,1.946,0,0,0,1.664.854,2.558,2.558,0,0,0,.619-.078l.012,0,6.368-1.709.012,0a2,2,0,0,0,.325-3.828ZM53.424,59.007l6.82-1.83L62.931,63.2a5.8,5.8,0,0,1-5.49-.1,6.929,6.929,0,0,0-4.343-.937ZM44.57,81.3a.664.664,0,0,1-.733.177l-6.355-1.7c-.2-.058-.524-.2-.544-.521a.636.636,0,0,1,.4-.6l4.353-1.875,2.833,3.8A.635.635,0,0,1,44.57,81.3Zm4.57-13.492a6.574,6.574,0,0,1-5.3.929h0a6.587,6.587,0,0,1-4.124-3.458,5.358,5.358,0,0,1-.4-3.588,7.149,7.149,0,0,0,3.193.73,6.676,6.676,0,0,0,3.582-.981,5.8,5.8,0,0,1,5.637-.022l-.261,2.525a5.305,5.305,0,0,1-2.327,3.865Zm4.709,3.011a5.388,5.388,0,0,1-2.409-3.19A6.652,6.652,0,0,0,52.9,64.1l.049-.472a5.525,5.525,0,0,1,3.718.679,6.679,6.679,0,0,0,3.584.982,7.146,7.146,0,0,0,3.191-.73,5.358,5.358,0,0,1-.4,3.589A6.582,6.582,0,0,1,58.916,71.6h0A6.533,6.533,0,0,1,53.849,70.823ZM65.273,82.636l-6.354,1.705a.663.663,0,0,1-.732-.178.636.636,0,0,1,.047-.719l2.833-3.8,4.354,1.877a.632.632,0,0,1,.4.6C65.8,82.435,65.471,82.578,65.273,82.636Z" transform="translate(0 -48.943)" fill="#f80505"/>
    <path id="Path_16545" data-name="Path 16545" d="M193.4,74.422a.72.72,0,0,0,0-1.441h0a.72.72,0,0,0,0,1.441Z" transform="translate(-145.862 -67.725)" fill="#f80505"/>
  </g>
</svg>
