<svg xmlns="http://www.w3.org/2000/svg" width="15.744" height="15.744" viewBox="0 0 15.744 15.744">
  <path id="plane_3_" data-name="plane (3)" d="M15.744,13.278l-2.854-7.6a7.011,7.011,0,0,0,1.48-2.211,1.8,1.8,0,0,0-.126-1.97,1.8,1.8,0,0,0-1.97-.126,7.012,7.012,0,0,0-2.211,1.48L2.466,0,0,1.292,7.413,5.835c-.489.591-.992,1.216-1.468,1.832q-.391.506-.723.958L2.484,8.531.9,9.715l2.885,1.111a3.917,3.917,0,0,0-.2.444c-.052.142-.209.573.054.836a.537.537,0,0,0,.394.148,1.324,1.324,0,0,0,.443-.094,3.914,3.914,0,0,0,.444-.2l1.111,2.885L7.212,13.26l-.094-2.738q.451-.332.958-.723c.616-.476,1.241-.979,1.832-1.468l4.543,7.413Z" fill="#ff002e"/>
</svg>
