<svg xmlns="http://www.w3.org/2000/svg" width="18.266" height="13.901" viewBox="0 0 18.266 13.901">
  <g id="mail" transform="translate(0 0)">
    <g id="Group_2482" data-name="Group 2482" transform="translate(0 0)">
      <path id="Path_16511" data-name="Path 16511" d="M16.036,57.75H2.234A2.236,2.236,0,0,0,0,59.984v9.434a2.236,2.236,0,0,0,2.234,2.234h13.8a2.236,2.236,0,0,0,2.234-2.234v-9.43A2.233,2.233,0,0,0,16.036,57.75ZM17.25,69.417a1.215,1.215,0,0,1-1.213,1.213H2.234A1.215,1.215,0,0,1,1.02,69.417v-9.43a1.215,1.215,0,0,1,1.213-1.213h13.8a1.215,1.215,0,0,1,1.213,1.213v9.43Z" transform="translate(0 -57.75)" fill="#f80505"/>
      <path id="Path_16512" data-name="Path 16512" d="M65.165,113.8l4.467-4.006a.511.511,0,1,0-.684-.76l-6.161,5.529-1.2-1.073s-.008-.008-.008-.011a.757.757,0,0,0-.083-.072L56.6,109.033a.511.511,0,1,0-.68.763l4.52,4.04-4.5,4.214a.512.512,0,0,0-.023.722.522.522,0,0,0,.374.163.511.511,0,0,0,.348-.136l4.569-4.275,1.24,1.107a.509.509,0,0,0,.68,0l1.274-1.141,4.543,4.316a.512.512,0,0,0,.722-.019.512.512,0,0,0-.019-.722Z" transform="translate(-53.645 -106.969)" fill="#f80505"/>
    </g>
  </g>
</svg>
