<svg xmlns="http://www.w3.org/2000/svg" width="52.069" height="27.77" viewBox="0 0 52.069 27.77">
  <g id="chopper" transform="translate(0)">
    <g id="Group_2439" data-name="Group 2439" transform="translate(0 5.207)">
      <g id="Group_2438" data-name="Group 2438">
        <path id="Path_15946" data-name="Path 15946" d="M5.207,160a5.207,5.207,0,1,0,5.207,5.207A5.213,5.213,0,0,0,5.207,160Zm0,8.678a3.471,3.471,0,1,1,3.471-3.471A3.475,3.475,0,0,1,5.207,168.678Z" transform="translate(0 -160)" fill="#f80505"/>
      </g>
    </g>
    <g id="Group_2441" data-name="Group 2441" transform="translate(6.166 0)">
      <g id="Group_2440" data-name="Group 2440">
        <path id="Path_15947" data-name="Path 15947" d="M98.407,136.3a4.339,4.339,0,1,0,0-8.678H97.9L94.681,124.4a.868.868,0,0,0-.614-.254H89.22L86.871,121.8a.868.868,0,0,0-.614-.254H82.786V119.81H101.01v-1.736H82.786v-1.736h1.736v-3.471a.868.868,0,0,0-.868-.868H80.183a.868.868,0,0,0-.868.868v3.471h1.736v1.736H62.826v1.736H81.051v1.736H76.711a.868.868,0,0,0-.868.868v2.244l-3.831,3.831h-9.7l-1.481-1.481-1.227,1.227,1.736,1.736a.868.868,0,0,0,.614.254H72.372a.868.868,0,0,0,.614-.254l4.339-4.339a.867.867,0,0,0,.254-.614v-1.736H85.9l.868.868H79.315v1.736h7.81v2.6a.868.868,0,0,0,.868.868H98.407a2.6,2.6,0,1,1,0,5.207H76.776L59.93,132.036,58.4,128.968l-1.553.776,1.736,3.471a.87.87,0,0,0,.648.47l17.356,2.6a.927.927,0,0,0,.129.009h4.339v1.736H73.24v1.736H99.275a.868.868,0,0,0,.868-.868v-1.736H98.407v.868H94.068V136.3ZM81.051,113.736h1.736v.868H81.051Zm7.81,13.885v-1.736h4.848l1.736,1.736Zm3.471,10.414H82.786V136.3h9.546Z" transform="translate(-56.843 -112)" fill="#f80505"/>
      </g>
    </g>
    <g id="Group_2443" data-name="Group 2443" transform="translate(26.035 15.621)">
      <g id="Group_2442" data-name="Group 2442">
        <path id="Path_15948" data-name="Path 15948" d="M243.471,257.736V256h-1.736v1.736H240v1.736h1.736v1.736h1.736v-1.736h1.736v-1.736Z" transform="translate(-240 -256)" fill="#f80505"/>
      </g>
    </g>
    <g id="Group_2445" data-name="Group 2445" transform="translate(4.562 9.493)">
      <g id="Group_2444" data-name="Group 2444" transform="translate(0 0)">
        <rect id="Rectangle_6" data-name="Rectangle 6" width="1.711" height="1.711" fill="#f80505"/>
      </g>
    </g>
  </g>
</svg>
