<svg id="phone_1_" data-name="phone (1)" xmlns="http://www.w3.org/2000/svg" width="19.351" height="18.663" viewBox="0 0 19.351 18.663">
  <g id="Group_2477" data-name="Group 2477" transform="translate(0 0)">
    <g id="Group_2476" data-name="Group 2476">
      <path id="Path_16508" data-name="Path 16508" d="M18.61,12.707a8.41,8.41,0,0,0-3.661-2.6,14.326,14.326,0,0,0-10.531-.016A8.406,8.406,0,0,0,.747,12.68a3.32,3.32,0,0,0-.6,3.052,1.6,1.6,0,0,0,1.533,1.105l2.417,0h0a1.615,1.615,0,0,0,1.243-.579,1.588,1.588,0,0,0,.346-1.306c0-.014-.005-.027-.009-.041l-.127-.494a9.861,9.861,0,0,1,4.122-.975,10.123,10.123,0,0,1,4.121.994l-.129.492c0,.014-.007.028-.009.042A1.588,1.588,0,0,0,14,16.279a1.615,1.615,0,0,0,1.244.583l2.417,0h0a1.6,1.6,0,0,0,1.533-1.1A3.323,3.323,0,0,0,18.61,12.707Zm-.51,2.7a.454.454,0,0,1-.435.3h0l-2.417,0a.463.463,0,0,1-.357-.166.433.433,0,0,1-.1-.342l.24-.915a.577.577,0,0,0-.267-.645,11.179,11.179,0,0,0-5.083-1.349H9.638a10.961,10.961,0,0,0-5.049,1.33.577.577,0,0,0-.267.642l.236.916a.433.433,0,0,1-.1.342.463.463,0,0,1-.357.165h0l-2.417,0a.454.454,0,0,1-.434-.3,2.184,2.184,0,0,1,.429-2.018C3,11.56,6.353,10.255,9.665,10.255h.018c3.316,0,6.677,1.322,7.992,3.131A2.188,2.188,0,0,1,18.1,15.408Z" transform="translate(0 -9.1)" fill="#f80505"/>
    </g>
  </g>
  <g id="Group_2479" data-name="Group 2479" transform="translate(2.019 6.795)">
    <g id="Group_2478" data-name="Group 2478">
      <path id="Path_16509" data-name="Path 16509" d="M66.551,192.326l-1.8-1.893a.577.577,0,0,0-.418-.179H63.166v-.787a.577.577,0,1,0-1.155,0v.787H60.162v-.787a.577.577,0,1,0-1.155,0v.787H57.842a.577.577,0,0,0-.418.179l-1.8,1.893A7.911,7.911,0,0,0,53.43,197.8v2.376a.577.577,0,0,0,.577.577H68.165a.577.577,0,0,0,.577-.577V197.8A7.91,7.91,0,0,0,66.551,192.326ZM54.585,199.6v-1.8a6.761,6.761,0,0,1,1.873-4.682l1.632-1.713h5.993l1.632,1.713a6.761,6.761,0,0,1,1.873,4.682v1.8Z" transform="translate(-53.43 -188.89)" fill="#f80505"/>
    </g>
  </g>
  <g id="Group_2481" data-name="Group 2481" transform="translate(6.654 10.508)">
    <g id="Group_2480" data-name="Group 2480">
      <path id="Path_16510" data-name="Path 16510" d="M179.068,287.135a3.022,3.022,0,1,0,3.022,3.022A3.025,3.025,0,0,0,179.068,287.135Zm0,4.889a1.867,1.867,0,1,1,1.867-1.867A1.869,1.869,0,0,1,179.068,292.024Z" transform="translate(-176.046 -287.135)" fill="#f80505"/>
    </g>
  </g>
</svg>
