<svg xmlns="http://www.w3.org/2000/svg" width="54.868" height="32.533" viewBox="0 0 54.868 32.533">
  <path id="aircraft" d="M52.346,120.532h-.914V117.9a.8.8,0,0,0-1.607,0v2.632H43.283l-1.647-2.059a5.929,5.929,0,0,0-4.652-2.236H17.5L7.941,105.091a2.519,2.519,0,0,0-1.915-.881H.8a.8.8,0,0,0-.739,1.12l4.674,10.906H2.293a2.293,2.293,0,0,0-.7,4.478l17.357,5.554a2.521,2.521,0,0,0,1.61,4.461H26.63v1.1a2.522,2.522,0,1,0,1.607,0v-1.1h6.069a2.526,2.526,0,0,0,2.39-1.718h7.115v2.82a2.522,2.522,0,1,0,1.607,0V129a5.913,5.913,0,0,0,3.851-1.733l.554-.554v1.5a.8.8,0,0,0,1.607,0v-2.632h.914a2.522,2.522,0,0,0,0-5.044Zm-24.912,14.6a.914.914,0,1,1,.914-.914A.915.915,0,0,1,27.434,135.135Zm12.947-15.659,1.712,2.141v.577a.915.915,0,0,1-.914.914H39.957l-2.625-5.249a4.326,4.326,0,0,1,3.048,1.617Zm-17.3-1.633h6.124v4.782q-.44-.146-.869-.336L23.627,120.2a.915.915,0,0,1-.543-.836Zm7.731,0h4.713l2.632,5.265H32.2a9.549,9.549,0,0,1-1.384-.1v-5.164ZM6.027,105.817a.913.913,0,0,1,.694.319l1.294,1.509H2.806l-.784-1.829Zm38.588,29.318a.914.914,0,1,1,.914-.914A.915.915,0,0,1,44.615,135.135Zm3.518-9.006a4.322,4.322,0,0,1-3.076,1.274H36.7a2.526,2.526,0,0,0-2.39-1.718.8.8,0,0,0,0,1.607.915.915,0,0,1,.914.913v0h0a.915.915,0,0,1-.914.913H20.562a.914.914,0,1,1,0-1.829H30.87a.8.8,0,1,0,0-1.607H22.405l-20.321-6.5a.686.686,0,0,1,.209-1.339H7.676a.8.8,0,1,0,0-1.607H6.488L3.5,109.254h5.9l5.985,6.983H11.112a.8.8,0,1,0,0,1.607H21.476v1.516a2.524,2.524,0,0,0,1.5,2.3l4.712,2.094a11.043,11.043,0,0,0,4.513.958h8.98a2.525,2.525,0,0,0,2.522-2.522v-.055h6.124v2.3Zm4.213-2.162h-.914v-1.829h.914a.914.914,0,0,1,0,1.829Z" transform="translate(0 -104.21)" fill="#f80505"/>
</svg>
