<svg xmlns="http://www.w3.org/2000/svg" width="54.868" height="46.873" viewBox="0 0 54.868 46.873">
  <g id="airport" transform="translate(0)">
    <path id="Path_15901" data-name="Path 15901" d="M79.243,30.245l-4.3,6.593A1.333,1.333,0,0,0,76.063,38.9h0l3.074-.005a1.532,1.532,0,0,0,.913-.306l6.3-4.744,8.907,1.526.024,0a3.212,3.212,0,0,0,.455.033l3.453-.005L89.56,51.712a1.3,1.3,0,0,0,1.117,1.957h0l5.463,0a1.918,1.918,0,0,0,1.34-.544l4.85-4.707A.953.953,0,0,0,101,47.047l-4.85,4.707a.021.021,0,0,1-.015.006l-4.4,0L101.409,35.4l11.62-.018-8.793,8.533a.953.953,0,1,0,1.327,1.367l10.206-9.9,4.833-.008a6.321,6.321,0,0,0,2.386-.47l4.692-1.913a3.041,3.041,0,0,0-.01-5.635l-4.7-1.9a6.318,6.318,0,0,0-2.376-.462h-.012L115.671,25,97.481,7.344A1.918,1.918,0,0,0,96.14,6.8l-5.462,0h0A1.3,1.3,0,0,0,89.56,8.753l9.608,16.269-3.446.005a3.153,3.153,0,0,0-.456.034l-.023,0-8.9,1.557L80.022,21.9a1.533,1.533,0,0,0-.912-.3h0l-3.074.005a1.333,1.333,0,0,0-1.111,2.064Zm-.26-6.742,6.283,4.7a1.72,1.72,0,0,0,1.322.316l8.969-1.569a1.225,1.225,0,0,1,.167-.012l12.728-.02a.953.953,0,0,0,0-1.905h0l-7.072.011L91.743,8.7l4.4,0a.021.021,0,0,1,.015.006l16.84,16.342a.952.952,0,0,0,.309,1.853h0l7.282-.012h.008a4.422,4.422,0,0,1,1.663.323l4.7,1.9a1.136,1.136,0,0,1,0,2.1l-4.692,1.913a4.425,4.425,0,0,1-1.67.329L95.736,33.5h0a1.221,1.221,0,0,1-.165-.011L86.6,31.95a1.719,1.719,0,0,0-1.321.32l-6.267,4.717-1.887,0,3.787-5.81a1.715,1.715,0,0,0,0-1.878l-3.807-5.8Z" transform="translate(-74.704 -6.796)" fill="#f80505"/>
    <ellipse id="Ellipse_1" data-name="Ellipse 1" cx="1.225" cy="1.225" rx="1.225" ry="1.225" transform="translate(23.415 22.257) rotate(-5.853)" fill="#f80505"/>
    <ellipse id="Ellipse_2" data-name="Ellipse 2" cx="1.225" cy="1.225" rx="1.225" ry="1.225" transform="translate(27.756 24.142) rotate(-72.543)" fill="#f80505"/>
    <ellipse id="Ellipse_3" data-name="Ellipse 3" cx="1.225" cy="1.225" rx="1.225" ry="1.225" transform="translate(32.001 23.339) rotate(-45)" fill="#f80505"/>
    <path id="Path_15902" data-name="Path 15902" d="M367.136,183.018a1.225,1.225,0,1,0-1.226-1.224A1.225,1.225,0,0,0,367.136,183.018Z" transform="translate(-328.861 -158.46)" fill="#f80505"/>
  </g>
</svg>
