<svg xmlns="http://www.w3.org/2000/svg" width="43.315" height="36.096" viewBox="0 0 43.315 36.096">
  <g id="Group_2504" data-name="Group 2504" transform="translate(0 0)">
    <path id="Path_16538" data-name="Path 16538" d="M39.705,48.08H30.681v-1.8a3.613,3.613,0,0,0-3.61-3.61H16.243a3.613,3.613,0,0,0-3.61,3.61v1.8H3.61A3.613,3.613,0,0,0,0,51.69V75.152a3.613,3.613,0,0,0,3.61,3.61h36.1a3.613,3.613,0,0,0,3.61-3.61V51.69A3.613,3.613,0,0,0,39.705,48.08Zm-25.267-1.8a1.807,1.807,0,0,1,1.8-1.8H27.072a1.807,1.807,0,0,1,1.8,1.8v1.8H14.438ZM41.51,75.152a1.807,1.807,0,0,1-1.8,1.8H3.61a1.807,1.807,0,0,1-1.8-1.8V62.017a3.568,3.568,0,0,0,1.8.5H18.048v2.707a.9.9,0,0,0,.9.9h5.414a.9.9,0,0,0,.9-.9V62.519H39.706a3.567,3.567,0,0,0,1.8-.5V75.152ZM19.853,64.324v-3.61h3.61v3.61ZM41.51,58.909a1.807,1.807,0,0,1-1.8,1.8H25.267v-.9a.9.9,0,0,0-.9-.9H18.95a.9.9,0,0,0-.9.9v.9H3.61a1.807,1.807,0,0,1-1.8-1.8V51.69a1.807,1.807,0,0,1,1.8-1.8h36.1a1.807,1.807,0,0,1,1.8,1.8Z" transform="translate(0 -42.666)" fill="#f80505"/>
  </g>
</svg>
