<svg xmlns="http://www.w3.org/2000/svg" width="140.001" height="138.537" viewBox="0 0 140.001 138.537">
  <g id="travel" transform="translate(-0.378 -0.42)">
    <path id="Path_15951" data-name="Path 15951" d="M139.71,36.068a11.229,11.229,0,0,0-13.123-6.927l-7.62-4.647a11.1,11.1,0,0,0-9.539-.939L81.552,33.7,58.662,1.354A2.221,2.221,0,0,0,56.1.553L43.635,5.091a2.21,2.21,0,0,0-1.324,2.836L55.169,43.3,27.452,53.382,12.564,36.73a2.208,2.208,0,0,0-2.406-.6L1.837,39.154A2.21,2.21,0,0,0,.513,41.99L12.624,75.272A2.212,2.212,0,0,0,14.7,76.728h.029l46.91-.576a2.166,2.166,0,0,0,.731-.135L66.527,74.5l12.116,33.286a2.206,2.206,0,0,0,2.836,1.324l12.483-4.545A2.209,2.209,0,0,0,95.41,102.3L92.322,65.119,133.1,50.269a11.084,11.084,0,0,0,6.61-14.2ZM47.228,8.5l8.8-3.2L77.242,35.267,59.328,41.784Zm-35.744,50.7L5.429,42.559,10.264,40.8,22.974,55.014Zm70.564,45L66.9,62.589l20.159-7.336,3.8,45.737Zm49.54-58.081L91.944,60.55,91.233,52a2.205,2.205,0,0,0-1.012-1.682,2.234,2.234,0,0,0-1.95-.217L63.309,59.184a2.213,2.213,0,0,0-1.322,2.838l3.028,8.319-3.8,1.388-44.964.553L13,63.355,110.936,27.72a6.671,6.671,0,0,1,5.734.558l2.121,1.293-6.5,2.367L113.8,36.1l9.825-3.575,1.5.914a2.212,2.212,0,0,0,1.893.2,6.644,6.644,0,1,1,4.567,12.479Z" transform="translate(0 0)" fill="#f80505"/>
    <path id="Path_15952" data-name="Path 15952" d="M0,0H4.425V4.428H0Z" transform="translate(97.756 37.227) rotate(-19.993)" fill="#f80505"/>
    <path id="Path_15953" data-name="Path 15953" d="M0,0H4.425V4.428H0Z" transform="translate(89.433 40.256) rotate(-19.993)" fill="#f80505"/>
    <path id="Path_15954" data-name="Path 15954" d="M0,0H4.425V4.428H0Z" transform="translate(81.113 43.289) rotate(-19.993)" fill="#f80505"/>
    <path id="Path_15955" data-name="Path 15955" d="M0,0H4.425V4.428H0Z" transform="translate(72.79 46.319) rotate(-19.993)" fill="#f80505"/>
    <path id="Path_15956" data-name="Path 15956" d="M0,0H4.425V4.428H0Z" transform="translate(64.467 49.35) rotate(-19.993)" fill="#f80505"/>
    <path id="Path_15957" data-name="Path 15957" d="M0,0H4.425V4.428H0Z" transform="translate(56.144 52.382) rotate(-19.993)" fill="#f80505"/>
    <path id="Path_15958" data-name="Path 15958" d="M0,0H4.425V4.428H0Z" transform="translate(47.822 55.412) rotate(-19.993)" fill="#f80505"/>
    <path id="Path_15959" data-name="Path 15959" d="M0,0H4.428V4.428H0Z" transform="translate(39.481 58.469) rotate(-19.993)" fill="#f80505"/>
    <path id="Path_15960" data-name="Path 15960" d="M0,0H4.428V4.428H0Z" transform="translate(31.156 61.499) rotate(-19.993)" fill="#f80505"/>
    <path id="Path_15961" data-name="Path 15961" d="M26.283,48.855h13.69a6.641,6.641,0,1,0,0-4.428H26.283a13.283,13.283,0,1,0,0,26.565H63.917V66.565H26.283a8.855,8.855,0,0,1,0-17.71Zm19.924-4.428a2.214,2.214,0,1,1-2.214,2.214A2.216,2.216,0,0,1,46.207,44.428Z" transform="translate(15.32 48.041)" fill="#f80505"/>
    <path id="Path_15962" data-name="Path 15962" d="M38,52h4.428v4.428H38Z" transform="translate(45.664 62.606)" fill="#f80505"/>
    <path id="Path_15963" data-name="Path 15963" d="M88.734,52H69.917v4.428H88.734a5.534,5.534,0,0,1,0,11.069H19v4.428H88.734a9.962,9.962,0,1,0,0-19.924Z" transform="translate(22.603 62.606)" fill="#f80505"/>
    <path id="Path_15964" data-name="Path 15964" d="M8.641,57a6.641,6.641,0,1,0,6.234,8.855H35.207V61.428H14.875A6.632,6.632,0,0,0,8.641,57Zm0,8.855a2.214,2.214,0,1,1,2.214-2.214A2.216,2.216,0,0,1,8.641,65.855Z" transform="translate(1.968 68.675)" fill="#f80505"/>
  </g>
</svg>
